%TF.GenerationSoftware,KiCad,Pcbnew,8.0.0*%
%TF.CreationDate,2024-07-07T23:16:46-07:00*%
%TF.ProjectId,main_relay_board,6d61696e-5f72-4656-9c61-795f626f6172,rev?*%
%TF.SameCoordinates,Original*%
%TF.FileFunction,Paste,Top*%
%TF.FilePolarity,Positive*%
%FSLAX46Y46*%
G04 Gerber Fmt 4.6, Leading zero omitted, Abs format (unit mm)*
G04 Created by KiCad (PCBNEW 8.0.0) date 2024-07-07 23:16:46*
%MOMM*%
%LPD*%
G01*
G04 APERTURE LIST*
G04 Aperture macros list*
%AMRoundRect*
0 Rectangle with rounded corners*
0 $1 Rounding radius*
0 $2 $3 $4 $5 $6 $7 $8 $9 X,Y pos of 4 corners*
0 Add a 4 corners polygon primitive as box body*
4,1,4,$2,$3,$4,$5,$6,$7,$8,$9,$2,$3,0*
0 Add four circle primitives for the rounded corners*
1,1,$1+$1,$2,$3*
1,1,$1+$1,$4,$5*
1,1,$1+$1,$6,$7*
1,1,$1+$1,$8,$9*
0 Add four rect primitives between the rounded corners*
20,1,$1+$1,$2,$3,$4,$5,0*
20,1,$1+$1,$4,$5,$6,$7,0*
20,1,$1+$1,$6,$7,$8,$9,0*
20,1,$1+$1,$8,$9,$2,$3,0*%
G04 Aperture macros list end*
%ADD10RoundRect,0.200000X0.200000X0.275000X-0.200000X0.275000X-0.200000X-0.275000X0.200000X-0.275000X0*%
%ADD11RoundRect,0.100000X-0.100000X0.637500X-0.100000X-0.637500X0.100000X-0.637500X0.100000X0.637500X0*%
%ADD12RoundRect,0.200000X0.275000X-0.200000X0.275000X0.200000X-0.275000X0.200000X-0.275000X-0.200000X0*%
%ADD13RoundRect,0.218750X-0.218750X-0.256250X0.218750X-0.256250X0.218750X0.256250X-0.218750X0.256250X0*%
%ADD14RoundRect,0.250000X-0.900000X1.000000X-0.900000X-1.000000X0.900000X-1.000000X0.900000X1.000000X0*%
%ADD15R,0.600000X1.500000*%
%ADD16RoundRect,0.225000X0.250000X-0.225000X0.250000X0.225000X-0.250000X0.225000X-0.250000X-0.225000X0*%
%ADD17RoundRect,0.218750X0.256250X-0.218750X0.256250X0.218750X-0.256250X0.218750X-0.256250X-0.218750X0*%
%ADD18RoundRect,0.200000X-0.200000X-0.275000X0.200000X-0.275000X0.200000X0.275000X-0.200000X0.275000X0*%
%ADD19RoundRect,0.150000X0.587500X0.150000X-0.587500X0.150000X-0.587500X-0.150000X0.587500X-0.150000X0*%
%ADD20RoundRect,0.250000X-0.375000X-1.075000X0.375000X-1.075000X0.375000X1.075000X-0.375000X1.075000X0*%
%ADD21RoundRect,0.200000X-0.275000X0.200000X-0.275000X-0.200000X0.275000X-0.200000X0.275000X0.200000X0*%
%ADD22RoundRect,0.225000X-0.225000X-0.250000X0.225000X-0.250000X0.225000X0.250000X-0.225000X0.250000X0*%
%ADD23RoundRect,0.225000X-0.250000X0.225000X-0.250000X-0.225000X0.250000X-0.225000X0.250000X0.225000X0*%
%ADD24R,1.500000X0.600000*%
%ADD25RoundRect,0.250000X1.000000X0.900000X-1.000000X0.900000X-1.000000X-0.900000X1.000000X-0.900000X0*%
%ADD26RoundRect,0.150000X-0.512500X-0.150000X0.512500X-0.150000X0.512500X0.150000X-0.512500X0.150000X0*%
%ADD27RoundRect,0.200000X0.200000X-0.250000X0.200000X0.250000X-0.200000X0.250000X-0.200000X-0.250000X0*%
%ADD28R,1.400000X1.200000*%
%ADD29RoundRect,0.225000X0.225000X0.250000X-0.225000X0.250000X-0.225000X-0.250000X0.225000X-0.250000X0*%
%ADD30RoundRect,0.250000X-1.000000X-0.900000X1.000000X-0.900000X1.000000X0.900000X-1.000000X0.900000X0*%
%ADD31RoundRect,0.250000X-1.450000X0.537500X-1.450000X-0.537500X1.450000X-0.537500X1.450000X0.537500X0*%
%ADD32R,1.000000X1.250000*%
%ADD33RoundRect,0.250000X-1.075000X0.375000X-1.075000X-0.375000X1.075000X-0.375000X1.075000X0.375000X0*%
%ADD34RoundRect,0.075000X-0.075000X0.700000X-0.075000X-0.700000X0.075000X-0.700000X0.075000X0.700000X0*%
%ADD35RoundRect,0.075000X-0.700000X0.075000X-0.700000X-0.075000X0.700000X-0.075000X0.700000X0.075000X0*%
%ADD36RoundRect,0.200000X-0.200000X0.250000X-0.200000X-0.250000X0.200000X-0.250000X0.200000X0.250000X0*%
%ADD37RoundRect,0.218750X0.218750X0.256250X-0.218750X0.256250X-0.218750X-0.256250X0.218750X-0.256250X0*%
%ADD38R,1.701800X0.558800*%
%ADD39RoundRect,0.100000X0.225000X0.100000X-0.225000X0.100000X-0.225000X-0.100000X0.225000X-0.100000X0*%
%ADD40RoundRect,0.200000X-0.250000X-0.200000X0.250000X-0.200000X0.250000X0.200000X-0.250000X0.200000X0*%
%ADD41R,1.910000X0.610000*%
%ADD42R,0.723000X0.930000*%
%ADD43RoundRect,0.266667X-0.633333X-0.533333X0.633333X-0.533333X0.633333X0.533333X-0.633333X0.533333X0*%
%ADD44RoundRect,0.250000X-0.850000X-0.350000X0.850000X-0.350000X0.850000X0.350000X-0.850000X0.350000X0*%
%ADD45RoundRect,0.266667X0.533333X-0.633333X0.533333X0.633333X-0.533333X0.633333X-0.533333X-0.633333X0*%
%ADD46RoundRect,0.250000X0.350000X-0.850000X0.350000X0.850000X-0.350000X0.850000X-0.350000X-0.850000X0*%
%ADD47RoundRect,0.375000X0.625000X0.375000X-0.625000X0.375000X-0.625000X-0.375000X0.625000X-0.375000X0*%
%ADD48RoundRect,0.500000X0.500000X1.400000X-0.500000X1.400000X-0.500000X-1.400000X0.500000X-1.400000X0*%
%ADD49RoundRect,0.200000X0.250000X0.200000X-0.250000X0.200000X-0.250000X-0.200000X0.250000X-0.200000X0*%
G04 APERTURE END LIST*
D10*
%TO.C,R715*%
X176339000Y-83312000D03*
X174689000Y-83312000D03*
%TD*%
D11*
%TO.C,U401*%
X107218000Y-85207000D03*
X106568000Y-85207000D03*
X105918000Y-85207000D03*
X105268000Y-85207000D03*
X104618000Y-85207000D03*
X103968000Y-85207000D03*
X103318000Y-85207000D03*
X102668000Y-85207000D03*
X102018000Y-85207000D03*
X101368000Y-85207000D03*
X101368000Y-90932000D03*
X102018000Y-90932000D03*
X102668000Y-90932000D03*
X103318000Y-90932000D03*
X103968000Y-90932000D03*
X104618000Y-90932000D03*
X105268000Y-90932000D03*
X105918000Y-90932000D03*
X106568000Y-90932000D03*
X107218000Y-90932000D03*
%TD*%
D12*
%TO.C,R303*%
X111506000Y-106489000D03*
X111506000Y-104839000D03*
%TD*%
D13*
%TO.C,D509*%
X137134500Y-108712000D03*
X138709500Y-108712000D03*
%TD*%
D14*
%TO.C,D603*%
X145914000Y-118890000D03*
X145914000Y-123190000D03*
%TD*%
D15*
%TO.C,OC401*%
X102162000Y-72958000D03*
X104702000Y-72958000D03*
X104702000Y-66548000D03*
X102162000Y-66548000D03*
%TD*%
D16*
%TO.C,C205*%
X108712000Y-113564000D03*
X108712000Y-112014000D03*
%TD*%
D17*
%TO.C,D501*%
X124015000Y-119113000D03*
X124015000Y-117538000D03*
%TD*%
D18*
%TO.C,R606*%
X161546000Y-62434000D03*
X163196000Y-62434000D03*
%TD*%
D19*
%TO.C,U302*%
X150289500Y-82055000D03*
X150289500Y-80155000D03*
X148414500Y-81105000D03*
%TD*%
D17*
%TO.C,D504*%
X117074000Y-77221500D03*
X117074000Y-75646500D03*
%TD*%
D12*
%TO.C,R712*%
X205000000Y-46325000D03*
X205000000Y-44675000D03*
%TD*%
%TO.C,R302*%
X153325000Y-59825000D03*
X153325000Y-58175000D03*
%TD*%
D17*
%TO.C,D506*%
X124694000Y-83317500D03*
X124694000Y-81742500D03*
%TD*%
D16*
%TO.C,C403*%
X102616000Y-82055000D03*
X102616000Y-80505000D03*
%TD*%
D14*
%TO.C,D604*%
X164592000Y-118246000D03*
X164592000Y-122546000D03*
%TD*%
D20*
%TO.C,L201*%
X122044000Y-113668000D03*
X124844000Y-113668000D03*
%TD*%
D18*
%TO.C,R304*%
X112650000Y-103124000D03*
X114300000Y-103124000D03*
%TD*%
D21*
%TO.C,R703*%
X208584800Y-79629000D03*
X208584800Y-81279000D03*
%TD*%
D16*
%TO.C,C708*%
X202692000Y-48514000D03*
X202692000Y-46964000D03*
%TD*%
D22*
%TO.C,C201*%
X111226000Y-118110000D03*
X112776000Y-118110000D03*
%TD*%
D21*
%TO.C,R705*%
X208584800Y-84010000D03*
X208584800Y-85660000D03*
%TD*%
D10*
%TO.C,R605*%
X106147000Y-48650000D03*
X104497000Y-48650000D03*
%TD*%
%TO.C,R710*%
X185229000Y-87122000D03*
X183579000Y-87122000D03*
%TD*%
D23*
%TO.C,C710*%
X174307000Y-88366000D03*
X174307000Y-89916000D03*
%TD*%
D24*
%TO.C,OC701*%
X191456000Y-120142000D03*
X191456000Y-122682000D03*
X197866000Y-122682000D03*
X197866000Y-120142000D03*
%TD*%
D21*
%TO.C,R704*%
X210503000Y-81026000D03*
X210503000Y-82676000D03*
%TD*%
D22*
%TO.C,C709*%
X209912500Y-65900000D03*
X211462500Y-65900000D03*
%TD*%
D25*
%TO.C,D601*%
X150882000Y-97027000D03*
X146582000Y-97027000D03*
%TD*%
D26*
%TO.C,U704*%
X186761000Y-118242000D03*
X186761000Y-119192000D03*
X186761000Y-120142000D03*
X189036000Y-120142000D03*
X189036000Y-118242000D03*
%TD*%
D15*
%TO.C,OC402*%
X109474000Y-72704000D03*
X112014000Y-72704000D03*
X112014000Y-66294000D03*
X109474000Y-66294000D03*
%TD*%
%TO.C,OC403*%
X117348000Y-72958000D03*
X119888000Y-72958000D03*
X119888000Y-66548000D03*
X117348000Y-66548000D03*
%TD*%
D18*
%TO.C,R508*%
X137675000Y-101500000D03*
X139325000Y-101500000D03*
%TD*%
D21*
%TO.C,R502*%
X128016000Y-121666000D03*
X128016000Y-123316000D03*
%TD*%
D27*
%TO.C,Q603*%
X138666000Y-115041000D03*
X140566000Y-115041000D03*
X139616000Y-113041000D03*
%TD*%
D28*
%TO.C,Y301*%
X163400000Y-59850000D03*
X165600000Y-59850000D03*
X165600000Y-58150000D03*
X163400000Y-58150000D03*
%TD*%
D12*
%TO.C,R701*%
X210000000Y-51000000D03*
X210000000Y-49350000D03*
%TD*%
D21*
%TO.C,R507*%
X139045500Y-96140000D03*
X139045500Y-97790000D03*
%TD*%
D29*
%TO.C,C401*%
X99060000Y-82804000D03*
X97510000Y-82804000D03*
%TD*%
D18*
%TO.C,R409*%
X103124000Y-97536000D03*
X104774000Y-97536000D03*
%TD*%
D21*
%TO.C,R102*%
X157988000Y-44704000D03*
X157988000Y-46354000D03*
%TD*%
D23*
%TO.C,C206*%
X118793000Y-123748000D03*
X118793000Y-125298000D03*
%TD*%
D16*
%TO.C,C707*%
X179641000Y-86868000D03*
X179641000Y-85318000D03*
%TD*%
D18*
%TO.C,R607*%
X166118000Y-62434000D03*
X167768000Y-62434000D03*
%TD*%
D30*
%TO.C,D602*%
X161816000Y-94585000D03*
X166116000Y-94585000D03*
%TD*%
D21*
%TO.C,R503*%
X131739358Y-121475000D03*
X131739358Y-123125000D03*
%TD*%
D23*
%TO.C,C703*%
X201371200Y-90284000D03*
X201371200Y-91834000D03*
%TD*%
D31*
%TO.C,C701*%
X210000000Y-57412500D03*
X210000000Y-61687500D03*
%TD*%
D13*
%TO.C,D510*%
X127482500Y-60452000D03*
X129057500Y-60452000D03*
%TD*%
D29*
%TO.C,C308*%
X143015000Y-75692000D03*
X141465000Y-75692000D03*
%TD*%
D18*
%TO.C,R603*%
X143697000Y-127605000D03*
X145347000Y-127605000D03*
%TD*%
%TO.C,R408*%
X100584000Y-95504000D03*
X102234000Y-95504000D03*
%TD*%
D17*
%TO.C,D512*%
X135165500Y-93183000D03*
X135165500Y-91608000D03*
%TD*%
D23*
%TO.C,C309*%
X166500000Y-68225000D03*
X166500000Y-69775000D03*
%TD*%
D32*
%TO.C,SW301*%
X178308000Y-66579761D03*
X178308000Y-74329761D03*
%TD*%
D21*
%TO.C,R512*%
X135128000Y-96140000D03*
X135128000Y-97790000D03*
%TD*%
D15*
%TO.C,OC604*%
X173478000Y-112305000D03*
X170938000Y-112305000D03*
X170938000Y-118715000D03*
X173478000Y-118715000D03*
%TD*%
D33*
%TO.C,L701*%
X198374000Y-61338000D03*
X198374000Y-64138000D03*
%TD*%
D18*
%TO.C,R505*%
X114999000Y-81026000D03*
X116649000Y-81026000D03*
%TD*%
D17*
%TO.C,D503*%
X131676358Y-119126000D03*
X131676358Y-117551000D03*
%TD*%
D21*
%TO.C,R707*%
X208584800Y-88836000D03*
X208584800Y-90486000D03*
%TD*%
D26*
%TO.C,U201*%
X110755000Y-114432000D03*
X110755000Y-115382000D03*
X110755000Y-116332000D03*
X113030000Y-116332000D03*
X113030000Y-115382000D03*
X113030000Y-114432000D03*
%TD*%
D29*
%TO.C,C402*%
X99073000Y-81026000D03*
X97523000Y-81026000D03*
%TD*%
D16*
%TO.C,C306*%
X156500000Y-59550000D03*
X156500000Y-58000000D03*
%TD*%
D21*
%TO.C,R706*%
X210312000Y-86360000D03*
X210312000Y-88010000D03*
%TD*%
%TO.C,R601*%
X150368000Y-90204000D03*
X150368000Y-91854000D03*
%TD*%
D34*
%TO.C,U301*%
X155301000Y-66687000D03*
X154801000Y-66687000D03*
X154301000Y-66687000D03*
X153801000Y-66687000D03*
X153301000Y-66687000D03*
X152801000Y-66687000D03*
X152301000Y-66687000D03*
X151801000Y-66687000D03*
X151301000Y-66687000D03*
X150801000Y-66687000D03*
X150301000Y-66687000D03*
X149801000Y-66687000D03*
X149301000Y-66687000D03*
X148801000Y-66687000D03*
X148301000Y-66687000D03*
X147801000Y-66687000D03*
D35*
X145876000Y-68612000D03*
X145876000Y-69112000D03*
X145876000Y-69612000D03*
X145876000Y-70112000D03*
X145876000Y-70612000D03*
X145876000Y-71112000D03*
X145876000Y-71612000D03*
X145876000Y-72112000D03*
X145876000Y-72612000D03*
X145876000Y-73112000D03*
X145876000Y-73612000D03*
X145876000Y-74112000D03*
X145876000Y-74612000D03*
X145876000Y-75112000D03*
X145876000Y-75612000D03*
X145876000Y-76112000D03*
D34*
X147801000Y-78037000D03*
X148301000Y-78037000D03*
X148801000Y-78037000D03*
X149301000Y-78037000D03*
X149801000Y-78037000D03*
X150301000Y-78037000D03*
X150801000Y-78037000D03*
X151301000Y-78037000D03*
X151801000Y-78037000D03*
X152301000Y-78037000D03*
X152801000Y-78037000D03*
X153301000Y-78037000D03*
X153801000Y-78037000D03*
X154301000Y-78037000D03*
X154801000Y-78037000D03*
X155301000Y-78037000D03*
D35*
X157226000Y-76112000D03*
X157226000Y-75612000D03*
X157226000Y-75112000D03*
X157226000Y-74612000D03*
X157226000Y-74112000D03*
X157226000Y-73612000D03*
X157226000Y-73112000D03*
X157226000Y-72612000D03*
X157226000Y-72112000D03*
X157226000Y-71612000D03*
X157226000Y-71112000D03*
X157226000Y-70612000D03*
X157226000Y-70112000D03*
X157226000Y-69612000D03*
X157226000Y-69112000D03*
X157226000Y-68612000D03*
%TD*%
D12*
%TO.C,R709*%
X194501000Y-46325000D03*
X194501000Y-44675000D03*
%TD*%
D16*
%TO.C,C304*%
X149352000Y-64275000D03*
X149352000Y-62725000D03*
%TD*%
%TO.C,C204*%
X112014000Y-111278000D03*
X112014000Y-109728000D03*
%TD*%
D27*
%TO.C,Q403*%
X117922000Y-63694000D03*
X119822000Y-63694000D03*
X118872000Y-61694000D03*
%TD*%
D16*
%TO.C,C303*%
X157226000Y-66307000D03*
X157226000Y-64757000D03*
%TD*%
D18*
%TO.C,R406*%
X127128000Y-66425000D03*
X128778000Y-66425000D03*
%TD*%
D24*
%TO.C,OC602*%
X172369000Y-101346000D03*
X172369000Y-98806000D03*
X165959000Y-98806000D03*
X165959000Y-101346000D03*
%TD*%
D17*
%TO.C,D502*%
X127888000Y-119200500D03*
X127888000Y-117625500D03*
%TD*%
D23*
%TO.C,C704*%
X189230000Y-90411000D03*
X189230000Y-91961000D03*
%TD*%
%TO.C,C301*%
X145288000Y-77711000D03*
X145288000Y-79261000D03*
%TD*%
D21*
%TO.C,R702*%
X210566000Y-76391000D03*
X210566000Y-78041000D03*
%TD*%
D27*
%TO.C,Q401*%
X102240000Y-63980000D03*
X104140000Y-63980000D03*
X103190000Y-61980000D03*
%TD*%
D18*
%TO.C,R510*%
X127445000Y-62992000D03*
X129095000Y-62992000D03*
%TD*%
D21*
%TO.C,R708*%
X189544000Y-122810000D03*
X189544000Y-124460000D03*
%TD*%
D24*
%TO.C,OC605*%
X108310000Y-45602000D03*
X108310000Y-48142000D03*
X114720000Y-48142000D03*
X114720000Y-45602000D03*
%TD*%
D36*
%TO.C,Q601*%
X156668000Y-96125000D03*
X154768000Y-96125000D03*
X155718000Y-98125000D03*
%TD*%
D21*
%TO.C,R401*%
X105156000Y-75155000D03*
X105156000Y-76805000D03*
%TD*%
%TO.C,R511*%
X131500000Y-96140000D03*
X131500000Y-97790000D03*
%TD*%
D23*
%TO.C,C705*%
X194564000Y-49450000D03*
X194564000Y-51000000D03*
%TD*%
D18*
%TO.C,R405*%
X123127000Y-66425000D03*
X124777000Y-66425000D03*
%TD*%
D21*
%TO.C,R504*%
X119126000Y-75629000D03*
X119126000Y-77279000D03*
%TD*%
D37*
%TO.C,D505*%
X112522000Y-81026000D03*
X110947000Y-81026000D03*
%TD*%
D16*
%TO.C,C706*%
X199500000Y-46275000D03*
X199500000Y-44725000D03*
%TD*%
D14*
%TO.C,D605*%
X104902000Y-52850000D03*
X104902000Y-57150000D03*
%TD*%
D17*
%TO.C,D507*%
X139000000Y-93243500D03*
X139000000Y-91668500D03*
%TD*%
D15*
%TO.C,OC601*%
X157069000Y-86964000D03*
X154529000Y-86964000D03*
X154529000Y-93374000D03*
X157069000Y-93374000D03*
%TD*%
D38*
%TO.C,U702*%
X199898000Y-88392000D03*
X199898000Y-87122000D03*
X199898000Y-85852000D03*
X199898000Y-84582000D03*
X189128400Y-84582000D03*
X189128400Y-85852000D03*
X189128400Y-87122000D03*
X189128400Y-88392000D03*
%TD*%
D21*
%TO.C,R501*%
X124015000Y-121399000D03*
X124015000Y-123049000D03*
%TD*%
D39*
%TO.C,U703*%
X176339000Y-86614000D03*
X176339000Y-85964000D03*
X176339000Y-85314000D03*
X174439000Y-85314000D03*
X174439000Y-86614000D03*
%TD*%
D22*
%TO.C,C302*%
X157454000Y-78486000D03*
X159004000Y-78486000D03*
%TD*%
D18*
%TO.C,R718*%
X218314000Y-69342000D03*
X219964000Y-69342000D03*
%TD*%
D22*
%TO.C,C305*%
X163804000Y-54610000D03*
X165354000Y-54610000D03*
%TD*%
D18*
%TO.C,R103*%
X142939000Y-45466000D03*
X144589000Y-45466000D03*
%TD*%
%TO.C,R407*%
X98235000Y-97536000D03*
X99885000Y-97536000D03*
%TD*%
%TO.C,R101*%
X142939000Y-51054000D03*
X144589000Y-51054000D03*
%TD*%
D27*
%TO.C,Q402*%
X109728000Y-63726000D03*
X111628000Y-63726000D03*
X110678000Y-61726000D03*
%TD*%
D15*
%TO.C,OC603*%
X138269000Y-124714000D03*
X140809000Y-124714000D03*
X140809000Y-118304000D03*
X138269000Y-118304000D03*
%TD*%
D18*
%TO.C,R301*%
X162180000Y-69596000D03*
X163830000Y-69596000D03*
%TD*%
D17*
%TO.C,D511*%
X131500000Y-93287500D03*
X131500000Y-91712500D03*
%TD*%
D40*
%TO.C,Q605*%
X117380000Y-45840000D03*
X117380000Y-47740000D03*
X119380000Y-46790000D03*
%TD*%
D13*
%TO.C,D508*%
X138000000Y-105500000D03*
X139575000Y-105500000D03*
%TD*%
D18*
%TO.C,R509*%
X135065000Y-111252000D03*
X136715000Y-111252000D03*
%TD*%
D10*
%TO.C,R711*%
X185229000Y-85344000D03*
X183579000Y-85344000D03*
%TD*%
D21*
%TO.C,R305*%
X115570000Y-104839000D03*
X115570000Y-106489000D03*
%TD*%
D41*
%TO.C,U701*%
X203780000Y-56528000D03*
X203780000Y-55258000D03*
X203780000Y-53988000D03*
X203780000Y-52718000D03*
X198220000Y-52718000D03*
X198220000Y-53988000D03*
X198220000Y-55258000D03*
X198220000Y-56528000D03*
D42*
X201602500Y-55398000D03*
X201602500Y-53848000D03*
X200397500Y-55398000D03*
X200397500Y-53848000D03*
%TD*%
D21*
%TO.C,R714*%
X181610000Y-87313000D03*
X181610000Y-88963000D03*
%TD*%
%TO.C,R713*%
X210000000Y-44675000D03*
X210000000Y-46325000D03*
%TD*%
D16*
%TO.C,C702*%
X202641200Y-87389000D03*
X202641200Y-85839000D03*
%TD*%
D43*
%TO.C,Q701*%
X208212000Y-118628000D03*
X208212000Y-120528000D03*
X208212000Y-122428000D03*
X210312000Y-118628000D03*
X210312000Y-120528000D03*
X210312000Y-122428000D03*
X212412000Y-118628000D03*
X212412000Y-120528000D03*
X212412000Y-122428000D03*
D44*
X204012000Y-118248000D03*
X204012000Y-122808000D03*
%TD*%
D45*
%TO.C,Q606*%
X169700000Y-49200000D03*
X171600000Y-49200000D03*
X173500000Y-49200000D03*
X169700000Y-47100000D03*
X171600000Y-47100000D03*
X173500000Y-47100000D03*
X169700000Y-45000000D03*
X171600000Y-45000000D03*
X173500000Y-45000000D03*
D46*
X169320000Y-53400000D03*
X173880000Y-53400000D03*
%TD*%
D16*
%TO.C,C203*%
X115303000Y-111265000D03*
X115303000Y-109715000D03*
%TD*%
D12*
%TO.C,R403*%
X122365000Y-73215000D03*
X122365000Y-71565000D03*
%TD*%
D23*
%TO.C,C202*%
X115316000Y-114300000D03*
X115316000Y-115850000D03*
%TD*%
D47*
%TO.C,U202*%
X116434000Y-125504000D03*
X116434000Y-123204000D03*
D48*
X110134000Y-123204000D03*
D47*
X116434000Y-120904000D03*
%TD*%
D37*
%TO.C,D701*%
X216091000Y-69342000D03*
X214516000Y-69342000D03*
%TD*%
D21*
%TO.C,R506*%
X124714000Y-85789000D03*
X124714000Y-87439000D03*
%TD*%
D49*
%TO.C,Q602*%
X163052000Y-100361000D03*
X163052000Y-98461000D03*
X161052000Y-99411000D03*
%TD*%
D10*
%TO.C,R602*%
X171704000Y-96109000D03*
X170054000Y-96109000D03*
%TD*%
D23*
%TO.C,C307*%
X154940000Y-80518000D03*
X154940000Y-82068000D03*
%TD*%
D21*
%TO.C,R402*%
X112776000Y-75218000D03*
X112776000Y-76868000D03*
%TD*%
D36*
%TO.C,Q604*%
X172838000Y-121509000D03*
X170938000Y-121509000D03*
X171888000Y-123509000D03*
%TD*%
D21*
%TO.C,R604*%
X168144000Y-113064000D03*
X168144000Y-114714000D03*
%TD*%
M02*
