%TF.GenerationSoftware,KiCad,Pcbnew,8.0.0*%
%TF.CreationDate,2024-07-09T22:18:33-07:00*%
%TF.ProjectId,main_relay_board,6d61696e-5f72-4656-9c61-795f626f6172,rev?*%
%TF.SameCoordinates,Original*%
%TF.FileFunction,Copper,L1,Top*%
%TF.FilePolarity,Positive*%
%FSLAX46Y46*%
G04 Gerber Fmt 4.6, Leading zero omitted, Abs format (unit mm)*
G04 Created by KiCad (PCBNEW 8.0.0) date 2024-07-09 22:18:33*
%MOMM*%
%LPD*%
G01*
G04 APERTURE LIST*
G04 Aperture macros list*
%AMRoundRect*
0 Rectangle with rounded corners*
0 $1 Rounding radius*
0 $2 $3 $4 $5 $6 $7 $8 $9 X,Y pos of 4 corners*
0 Add a 4 corners polygon primitive as box body*
4,1,4,$2,$3,$4,$5,$6,$7,$8,$9,$2,$3,0*
0 Add four circle primitives for the rounded corners*
1,1,$1+$1,$2,$3*
1,1,$1+$1,$4,$5*
1,1,$1+$1,$6,$7*
1,1,$1+$1,$8,$9*
0 Add four rect primitives between the rounded corners*
20,1,$1+$1,$2,$3,$4,$5,0*
20,1,$1+$1,$4,$5,$6,$7,0*
20,1,$1+$1,$6,$7,$8,$9,0*
20,1,$1+$1,$8,$9,$2,$3,0*%
G04 Aperture macros list end*
%TA.AperFunction,EtchedComponent*%
%ADD10C,0.200000*%
%TD*%
%TA.AperFunction,EtchedComponent*%
%ADD11C,0.100000*%
%TD*%
%TA.AperFunction,SMDPad,CuDef*%
%ADD12RoundRect,0.218750X0.256250X-0.218750X0.256250X0.218750X-0.256250X0.218750X-0.256250X-0.218750X0*%
%TD*%
%TA.AperFunction,ComponentPad*%
%ADD13R,2.000000X2.000000*%
%TD*%
%TA.AperFunction,ComponentPad*%
%ADD14C,2.000000*%
%TD*%
%TA.AperFunction,SMDPad,CuDef*%
%ADD15RoundRect,0.100000X-0.100000X0.637500X-0.100000X-0.637500X0.100000X-0.637500X0.100000X0.637500X0*%
%TD*%
%TA.AperFunction,SMDPad,CuDef*%
%ADD16RoundRect,0.200000X0.275000X-0.200000X0.275000X0.200000X-0.275000X0.200000X-0.275000X-0.200000X0*%
%TD*%
%TA.AperFunction,SMDPad,CuDef*%
%ADD17RoundRect,0.225000X-0.225000X-0.250000X0.225000X-0.250000X0.225000X0.250000X-0.225000X0.250000X0*%
%TD*%
%TA.AperFunction,SMDPad,CuDef*%
%ADD18RoundRect,0.218750X-0.218750X-0.256250X0.218750X-0.256250X0.218750X0.256250X-0.218750X0.256250X0*%
%TD*%
%TA.AperFunction,SMDPad,CuDef*%
%ADD19RoundRect,0.250000X-0.900000X1.000000X-0.900000X-1.000000X0.900000X-1.000000X0.900000X1.000000X0*%
%TD*%
%TA.AperFunction,SMDPad,CuDef*%
%ADD20R,0.600000X1.500000*%
%TD*%
%TA.AperFunction,SMDPad,CuDef*%
%ADD21RoundRect,0.225000X0.250000X-0.225000X0.250000X0.225000X-0.250000X0.225000X-0.250000X-0.225000X0*%
%TD*%
%TA.AperFunction,SMDPad,CuDef*%
%ADD22RoundRect,0.200000X-0.200000X-0.275000X0.200000X-0.275000X0.200000X0.275000X-0.200000X0.275000X0*%
%TD*%
%TA.AperFunction,ComponentPad*%
%ADD23RoundRect,0.250001X1.099999X1.399999X-1.099999X1.399999X-1.099999X-1.399999X1.099999X-1.399999X0*%
%TD*%
%TA.AperFunction,ComponentPad*%
%ADD24O,2.700000X3.300000*%
%TD*%
%TA.AperFunction,SMDPad,CuDef*%
%ADD25RoundRect,0.150000X0.587500X0.150000X-0.587500X0.150000X-0.587500X-0.150000X0.587500X-0.150000X0*%
%TD*%
%TA.AperFunction,SMDPad,CuDef*%
%ADD26RoundRect,0.218750X0.218750X0.256250X-0.218750X0.256250X-0.218750X-0.256250X0.218750X-0.256250X0*%
%TD*%
%TA.AperFunction,SMDPad,CuDef*%
%ADD27RoundRect,0.250000X-0.375000X-1.075000X0.375000X-1.075000X0.375000X1.075000X-0.375000X1.075000X0*%
%TD*%
%TA.AperFunction,SMDPad,CuDef*%
%ADD28RoundRect,0.200000X-0.275000X0.200000X-0.275000X-0.200000X0.275000X-0.200000X0.275000X0.200000X0*%
%TD*%
%TA.AperFunction,SMDPad,CuDef*%
%ADD29RoundRect,0.200000X0.200000X0.275000X-0.200000X0.275000X-0.200000X-0.275000X0.200000X-0.275000X0*%
%TD*%
%TA.AperFunction,SMDPad,CuDef*%
%ADD30RoundRect,0.135000X-0.135000X-0.185000X0.135000X-0.185000X0.135000X0.185000X-0.135000X0.185000X0*%
%TD*%
%TA.AperFunction,SMDPad,CuDef*%
%ADD31RoundRect,0.250000X0.500000X-0.950000X0.500000X0.950000X-0.500000X0.950000X-0.500000X-0.950000X0*%
%TD*%
%TA.AperFunction,SMDPad,CuDef*%
%ADD32RoundRect,0.250000X0.500000X-0.275000X0.500000X0.275000X-0.500000X0.275000X-0.500000X-0.275000X0*%
%TD*%
%TA.AperFunction,SMDPad,CuDef*%
%ADD33R,1.500000X0.600000*%
%TD*%
%TA.AperFunction,SMDPad,CuDef*%
%ADD34RoundRect,0.250000X1.000000X0.900000X-1.000000X0.900000X-1.000000X-0.900000X1.000000X-0.900000X0*%
%TD*%
%TA.AperFunction,SMDPad,CuDef*%
%ADD35RoundRect,0.150000X-0.512500X-0.150000X0.512500X-0.150000X0.512500X0.150000X-0.512500X0.150000X0*%
%TD*%
%TA.AperFunction,SMDPad,CuDef*%
%ADD36RoundRect,0.200000X0.200000X-0.250000X0.200000X0.250000X-0.200000X0.250000X-0.200000X-0.250000X0*%
%TD*%
%TA.AperFunction,SMDPad,CuDef*%
%ADD37R,1.400000X1.200000*%
%TD*%
%TA.AperFunction,ComponentPad*%
%ADD38RoundRect,0.250001X-1.399999X1.099999X-1.399999X-1.099999X1.399999X-1.099999X1.399999X1.099999X0*%
%TD*%
%TA.AperFunction,ComponentPad*%
%ADD39O,3.300000X2.700000*%
%TD*%
%TA.AperFunction,SMDPad,CuDef*%
%ADD40RoundRect,0.225000X0.225000X0.250000X-0.225000X0.250000X-0.225000X-0.250000X0.225000X-0.250000X0*%
%TD*%
%TA.AperFunction,SMDPad,CuDef*%
%ADD41RoundRect,0.225000X-0.250000X0.225000X-0.250000X-0.225000X0.250000X-0.225000X0.250000X0.225000X0*%
%TD*%
%TA.AperFunction,SMDPad,CuDef*%
%ADD42RoundRect,0.250000X-1.000000X-0.900000X1.000000X-0.900000X1.000000X0.900000X-1.000000X0.900000X0*%
%TD*%
%TA.AperFunction,SMDPad,CuDef*%
%ADD43R,1.000000X1.250000*%
%TD*%
%TA.AperFunction,ComponentPad*%
%ADD44RoundRect,0.250001X-1.099999X-1.399999X1.099999X-1.399999X1.099999X1.399999X-1.099999X1.399999X0*%
%TD*%
%TA.AperFunction,SMDPad,CuDef*%
%ADD45R,2.900000X5.400000*%
%TD*%
%TA.AperFunction,ComponentPad*%
%ADD46R,2.600000X2.600000*%
%TD*%
%TA.AperFunction,ComponentPad*%
%ADD47C,2.600000*%
%TD*%
%TA.AperFunction,SMDPad,CuDef*%
%ADD48RoundRect,0.075000X-0.075000X0.700000X-0.075000X-0.700000X0.075000X-0.700000X0.075000X0.700000X0*%
%TD*%
%TA.AperFunction,SMDPad,CuDef*%
%ADD49RoundRect,0.075000X-0.700000X0.075000X-0.700000X-0.075000X0.700000X-0.075000X0.700000X0.075000X0*%
%TD*%
%TA.AperFunction,SMDPad,CuDef*%
%ADD50R,1.000000X1.500000*%
%TD*%
%TA.AperFunction,SMDPad,CuDef*%
%ADD51O,0.599999X2.200001*%
%TD*%
%TA.AperFunction,ComponentPad*%
%ADD52R,4.500000X2.500000*%
%TD*%
%TA.AperFunction,ComponentPad*%
%ADD53O,4.500000X2.500000*%
%TD*%
%TA.AperFunction,SMDPad,CuDef*%
%ADD54RoundRect,0.200000X-0.200000X0.250000X-0.200000X-0.250000X0.200000X-0.250000X0.200000X0.250000X0*%
%TD*%
%TA.AperFunction,SMDPad,CuDef*%
%ADD55RoundRect,0.100000X0.100000X-0.225000X0.100000X0.225000X-0.100000X0.225000X-0.100000X-0.225000X0*%
%TD*%
%TA.AperFunction,SMDPad,CuDef*%
%ADD56R,1.701800X0.558800*%
%TD*%
%TA.AperFunction,ComponentPad*%
%ADD57RoundRect,0.250001X1.399999X-1.099999X1.399999X1.099999X-1.399999X1.099999X-1.399999X-1.099999X0*%
%TD*%
%TA.AperFunction,SMDPad,CuDef*%
%ADD58RoundRect,0.200000X-0.250000X-0.200000X0.250000X-0.200000X0.250000X0.200000X-0.250000X0.200000X0*%
%TD*%
%TA.AperFunction,SMDPad,CuDef*%
%ADD59RoundRect,0.250000X0.325000X0.650000X-0.325000X0.650000X-0.325000X-0.650000X0.325000X-0.650000X0*%
%TD*%
%TA.AperFunction,SMDPad,CuDef*%
%ADD60RoundRect,0.250000X-0.850000X-0.350000X0.850000X-0.350000X0.850000X0.350000X-0.850000X0.350000X0*%
%TD*%
%TA.AperFunction,SMDPad,CuDef*%
%ADD61RoundRect,0.250000X-2.950000X-2.650000X2.950000X-2.650000X2.950000X2.650000X-2.950000X2.650000X0*%
%TD*%
%TA.AperFunction,SMDPad,CuDef*%
%ADD62RoundRect,0.250000X0.350000X-0.850000X0.350000X0.850000X-0.350000X0.850000X-0.350000X-0.850000X0*%
%TD*%
%TA.AperFunction,SMDPad,CuDef*%
%ADD63RoundRect,0.250000X2.650000X-2.950000X2.650000X2.950000X-2.650000X2.950000X-2.650000X-2.950000X0*%
%TD*%
%TA.AperFunction,SMDPad,CuDef*%
%ADD64RoundRect,0.375000X0.625000X0.375000X-0.625000X0.375000X-0.625000X-0.375000X0.625000X-0.375000X0*%
%TD*%
%TA.AperFunction,SMDPad,CuDef*%
%ADD65RoundRect,0.500000X0.500000X1.400000X-0.500000X1.400000X-0.500000X-1.400000X0.500000X-1.400000X0*%
%TD*%
%TA.AperFunction,SMDPad,CuDef*%
%ADD66RoundRect,0.200000X0.250000X0.200000X-0.250000X0.200000X-0.250000X-0.200000X0.250000X-0.200000X0*%
%TD*%
%TA.AperFunction,SMDPad,CuDef*%
%ADD67RoundRect,0.250000X0.950000X0.500000X-0.950000X0.500000X-0.950000X-0.500000X0.950000X-0.500000X0*%
%TD*%
%TA.AperFunction,SMDPad,CuDef*%
%ADD68RoundRect,0.250000X0.275000X0.500000X-0.275000X0.500000X-0.275000X-0.500000X0.275000X-0.500000X0*%
%TD*%
%TA.AperFunction,ViaPad*%
%ADD69C,0.600000*%
%TD*%
%TA.AperFunction,ViaPad*%
%ADD70C,0.700000*%
%TD*%
%TA.AperFunction,Conductor*%
%ADD71C,0.300000*%
%TD*%
%TA.AperFunction,Conductor*%
%ADD72C,0.500000*%
%TD*%
%TA.AperFunction,Conductor*%
%ADD73C,1.000000*%
%TD*%
%TA.AperFunction,Conductor*%
%ADD74C,0.200000*%
%TD*%
G04 APERTURE END LIST*
D10*
%TO.C,REF\u002A\u002A*%
X204981813Y-109359499D02*
X204681813Y-109779499D01*
X204414188Y-109290374D01*
X204981813Y-109359499D01*
%TA.AperFunction,EtchedComponent*%
G36*
X204981813Y-109359499D02*
G01*
X204681813Y-109779499D01*
X204414188Y-109290374D01*
X204981813Y-109359499D01*
G37*
%TD.AperFunction*%
X212462813Y-110242875D02*
X209501813Y-110679499D01*
X209941813Y-108839499D01*
X212462813Y-110242875D01*
%TA.AperFunction,EtchedComponent*%
G36*
X212462813Y-110242875D02*
G01*
X209501813Y-110679499D01*
X209941813Y-108839499D01*
X212462813Y-110242875D01*
G37*
%TD.AperFunction*%
X204461813Y-111052499D02*
X203828339Y-110792181D01*
X204151813Y-110429499D01*
X204461813Y-111052499D01*
%TA.AperFunction,EtchedComponent*%
G36*
X204461813Y-111052499D02*
G01*
X203828339Y-110792181D01*
X204151813Y-110429499D01*
X204461813Y-111052499D01*
G37*
%TD.AperFunction*%
X203828339Y-110792181D02*
X203821813Y-110799499D01*
X203821813Y-110789499D01*
X203828339Y-110792181D01*
%TA.AperFunction,EtchedComponent*%
G36*
X203828339Y-110792181D02*
G01*
X203821813Y-110799499D01*
X203821813Y-110789499D01*
X203828339Y-110792181D01*
G37*
%TD.AperFunction*%
X210224438Y-109385625D02*
X209557688Y-108290249D01*
X212462813Y-110242875D01*
X209033814Y-110957249D01*
X210081563Y-110195250D01*
X204414188Y-109290374D01*
X206366814Y-112957500D01*
X197937188Y-110576250D01*
X197937188Y-108242625D01*
X204461813Y-111052499D01*
X202413938Y-107242500D01*
X210224438Y-109385625D01*
%TA.AperFunction,EtchedComponent*%
G36*
X210224438Y-109385625D02*
G01*
X209557688Y-108290249D01*
X212462813Y-110242875D01*
X209033814Y-110957249D01*
X210081563Y-110195250D01*
X204414188Y-109290374D01*
X206366814Y-112957500D01*
X197937188Y-110576250D01*
X197937188Y-108242625D01*
X204461813Y-111052499D01*
X202413938Y-107242500D01*
X210224438Y-109385625D01*
G37*
%TD.AperFunction*%
X190810000Y-44850000D02*
X191010000Y-45100000D01*
X190920000Y-46730000D02*
X191430000Y-46820000D01*
X191130000Y-45095000D02*
X191330000Y-45345000D01*
D11*
X190761573Y-45125740D02*
X191925740Y-44500000D01*
X191270896Y-46886542D01*
X191605594Y-46682813D01*
X191008958Y-47570490D01*
X190790677Y-46522740D01*
X191023511Y-46842886D01*
X191300000Y-45111188D01*
X190179490Y-45707823D01*
X190907094Y-43132104D01*
X191620146Y-43132104D01*
X190761573Y-45125740D01*
%TA.AperFunction,EtchedComponent*%
G36*
X190761573Y-45125740D02*
G01*
X191925740Y-44500000D01*
X191270896Y-46886542D01*
X191605594Y-46682813D01*
X191008958Y-47570490D01*
X190790677Y-46522740D01*
X191023511Y-46842886D01*
X191300000Y-45111188D01*
X190179490Y-45707823D01*
X190907094Y-43132104D01*
X191620146Y-43132104D01*
X190761573Y-45125740D01*
G37*
%TD.AperFunction*%
%TD*%
D12*
%TO.P,D505,1,K*%
%TO.N,Net-(D505-K)*%
X124800000Y-93281000D03*
%TO.P,D505,2,A*%
%TO.N,BMS_OK_FINAL*%
X124800000Y-91706000D03*
%TD*%
D13*
%TO.P,C705,1*%
%TO.N,Net-(U701-DRAIN)*%
X207310161Y-49910161D03*
D14*
%TO.P,C705,2*%
%TO.N,HSGND*%
X207310161Y-54910161D03*
%TD*%
D15*
%TO.P,U401,1,PD4*%
%TO.N,BMS_OK_LATCHED*%
X107218000Y-85207000D03*
%TO.P,U401,2,PD5*%
%TO.N,BMS_OUT1*%
X106568000Y-85207000D03*
%TO.P,U401,3,PD6*%
%TO.N,IMD_OK_LATCHED*%
X105918000Y-85207000D03*
%TO.P,U401,4,NRST*%
%TO.N,STM8_NRST*%
X105268000Y-85207000D03*
%TO.P,U401,5,PA1*%
%TO.N,LATCH_RST*%
X104618000Y-85207000D03*
%TO.P,U401,6,PA2*%
%TO.N,IMD_OK*%
X103968000Y-85207000D03*
%TO.P,U401,7,VSS*%
%TO.N,GND*%
X103318000Y-85207000D03*
%TO.P,U401,8,VCAP*%
%TO.N,Net-(U401-VCAP)*%
X102668000Y-85207000D03*
%TO.P,U401,9,VDD*%
%TO.N,+3V3*%
X102018000Y-85207000D03*
%TO.P,U401,10,PA3*%
%TO.N,unconnected-(U401-PA3-Pad10)*%
X101368000Y-85207000D03*
%TO.P,U401,11,PB5*%
%TO.N,unconnected-(U401-PB5-Pad11)*%
X101368000Y-90932000D03*
%TO.P,U401,12,PB4*%
%TO.N,unconnected-(U401-PB4-Pad12)*%
X102018000Y-90932000D03*
%TO.P,U401,13,PC3*%
%TO.N,unconnected-(U401-PC3-Pad13)*%
X102668000Y-90932000D03*
%TO.P,U401,14,PC4*%
%TO.N,unconnected-(U401-PC4-Pad14)*%
X103318000Y-90932000D03*
%TO.P,U401,15,PC5*%
%TO.N,unconnected-(U401-PC5-Pad15)*%
X103968000Y-90932000D03*
%TO.P,U401,16,PC6*%
%TO.N,unconnected-(U401-PC6-Pad16)*%
X104618000Y-90932000D03*
%TO.P,U401,17,PC7*%
%TO.N,unconnected-(U401-PC7-Pad17)*%
X105268000Y-90932000D03*
%TO.P,U401,18,PD1*%
%TO.N,SWIM*%
X105918000Y-90932000D03*
%TO.P,U401,19,PD2*%
%TO.N,unconnected-(U401-PD2-Pad19)*%
X106568000Y-90932000D03*
%TO.P,U401,20,PD3*%
%TO.N,unconnected-(U401-PD3-Pad20)*%
X107218000Y-90932000D03*
%TD*%
D16*
%TO.P,R303,1*%
%TO.N,IMD_IO_H*%
X111506000Y-106489000D03*
%TO.P,R303,2*%
%TO.N,Net-(R303-Pad2)*%
X111506000Y-104839000D03*
%TD*%
D17*
%TO.P,C710,1*%
%TO.N,+3V3*%
X177025000Y-87762000D03*
%TO.P,C710,2*%
%TO.N,GND*%
X178575000Y-87762000D03*
%TD*%
D18*
%TO.P,D509,1,K*%
%TO.N,Net-(D509-K)*%
X133925000Y-108000000D03*
%TO.P,D509,2,A*%
%TO.N,HVC-_AUX*%
X135500000Y-108000000D03*
%TD*%
D19*
%TO.P,D603,1,K*%
%TO.N,CHRG+_PWR*%
X145914000Y-118890000D03*
%TO.P,D603,2,A*%
%TO.N,GND*%
X145914000Y-123190000D03*
%TD*%
D20*
%TO.P,OC401,1*%
%TO.N,IMD_OK_FINAL*%
X102162000Y-72958000D03*
%TO.P,OC401,2*%
%TO.N,Net-(OC401-Pad2)*%
X104702000Y-72958000D03*
%TO.P,OC401,3*%
%TO.N,Net-(Q401-S)*%
X104702000Y-66548000D03*
%TO.P,OC401,4*%
%TO.N,Net-(Q401-G)*%
X102162000Y-66548000D03*
%TD*%
D21*
%TO.P,C205,1*%
%TO.N,+5V*%
X108712000Y-113564000D03*
%TO.P,C205,2*%
%TO.N,GND*%
X108712000Y-112014000D03*
%TD*%
D12*
%TO.P,D501,1,K*%
%TO.N,Net-(D501-K)*%
X124015000Y-119113000D03*
%TO.P,D501,2,A*%
%TO.N,+24V*%
X124015000Y-117538000D03*
%TD*%
D22*
%TO.P,R606,1*%
%TO.N,PUMP_EN*%
X161546000Y-62434000D03*
%TO.P,R606,2*%
%TO.N,Net-(Q606-G)*%
X163196000Y-62434000D03*
%TD*%
D23*
%TO.P,J108,1,Pin_1*%
%TO.N,SWO*%
X168470000Y-79958000D03*
D24*
%TO.P,J108,2,Pin_2*%
%TO.N,SWDCLK*%
X164270000Y-79958000D03*
%TO.P,J108,3,Pin_3*%
%TO.N,SWDIO*%
X168470000Y-74458000D03*
%TO.P,J108,4,Pin_4*%
%TO.N,GND*%
X164270000Y-74458000D03*
%TD*%
D25*
%TO.P,U302,1,V_{DD}*%
%TO.N,+3V3*%
X150289500Y-82055000D03*
%TO.P,U302,2,V_{OUT}*%
%TO.N,TEMP_A*%
X150289500Y-80155000D03*
%TO.P,U302,3,GND*%
%TO.N,GND*%
X148414500Y-81105000D03*
%TD*%
D26*
%TO.P,D504,1,K*%
%TO.N,Net-(D504-K)*%
X115000000Y-81900000D03*
%TO.P,D504,2,A*%
%TO.N,IMD_OK_FINAL*%
X113425000Y-81900000D03*
%TD*%
D12*
%TO.P,D506,1,K*%
%TO.N,Net-(D506-K)*%
X128100000Y-93303500D03*
%TO.P,D506,2,A*%
%TO.N,MCU_OK*%
X128100000Y-91728500D03*
%TD*%
D21*
%TO.P,C403,1*%
%TO.N,Net-(U401-VCAP)*%
X102616000Y-82055000D03*
%TO.P,C403,2*%
%TO.N,GND*%
X102616000Y-80505000D03*
%TD*%
D19*
%TO.P,D604,1,K*%
%TO.N,CHRG-_PWR*%
X164592000Y-118246000D03*
%TO.P,D604,2,A*%
%TO.N,GND*%
X164592000Y-122546000D03*
%TD*%
D27*
%TO.P,L201,1*%
%TO.N,Net-(U201-SW)*%
X122044000Y-113668000D03*
%TO.P,L201,2*%
%TO.N,+5V*%
X124844000Y-113668000D03*
%TD*%
D22*
%TO.P,R304,1*%
%TO.N,Net-(R303-Pad2)*%
X112650000Y-103124000D03*
%TO.P,R304,2*%
%TO.N,Net-(U301-PB7)*%
X114300000Y-103124000D03*
%TD*%
D28*
%TO.P,R703,1*%
%TO.N,Net-(R702-Pad2)*%
X208584800Y-90805000D03*
%TO.P,R703,2*%
%TO.N,Net-(R703-Pad2)*%
X208584800Y-92455000D03*
%TD*%
D17*
%TO.P,C201,1*%
%TO.N,+24V*%
X111226000Y-118110000D03*
%TO.P,C201,2*%
%TO.N,GND*%
X112776000Y-118110000D03*
%TD*%
D28*
%TO.P,R705,1*%
%TO.N,Net-(R704-Pad2)*%
X208584800Y-95186000D03*
%TO.P,R705,2*%
%TO.N,Net-(R705-Pad2)*%
X208584800Y-96836000D03*
%TD*%
D29*
%TO.P,R605,1*%
%TO.N,Net-(OC605-Pad2)*%
X106147000Y-48650000D03*
%TO.P,R605,2*%
%TO.N,GND*%
X104497000Y-48650000D03*
%TD*%
%TO.P,R710,1*%
%TO.N,VDIFFP*%
X185229000Y-98298000D03*
%TO.P,R710,2*%
%TO.N,Net-(U703-+)*%
X183579000Y-98298000D03*
%TD*%
D30*
%TO.P,R713,1*%
%TO.N,HS+5V*%
X200658000Y-83312000D03*
%TO.P,R713,2*%
%TO.N,HSGND*%
X201678000Y-83312000D03*
%TD*%
D31*
%TO.P,D702,1,K*%
%TO.N,Net-(D702-K)*%
X208280000Y-63158000D03*
D32*
%TO.P,D702,2,A*%
%TO.N,HS+5V*%
X208280000Y-65533000D03*
%TD*%
D33*
%TO.P,OC701,1*%
%TO.N,Net-(OC701-Pad1)*%
X191456000Y-120142000D03*
%TO.P,OC701,2*%
%TO.N,Net-(OC701-Pad2)*%
X191456000Y-122682000D03*
%TO.P,OC701,3*%
%TO.N,HSGND*%
X197866000Y-122682000D03*
%TO.P,OC701,4*%
%TO.N,Net-(Q701-G)*%
X197866000Y-120142000D03*
%TD*%
D28*
%TO.P,R704,1*%
%TO.N,Net-(R703-Pad2)*%
X210503000Y-92202000D03*
%TO.P,R704,2*%
%TO.N,Net-(R704-Pad2)*%
X210503000Y-93852000D03*
%TD*%
D34*
%TO.P,D601,1,K*%
%TO.N,HVC+_PWR*%
X150882000Y-97027000D03*
%TO.P,D601,2,A*%
%TO.N,GND*%
X146582000Y-97027000D03*
%TD*%
D35*
%TO.P,U704,1,NC*%
%TO.N,unconnected-(U704-NC-Pad1)*%
X186761000Y-118242000D03*
%TO.P,U704,2*%
%TO.N,SAFETY_LOOP_ST*%
X186761000Y-119192000D03*
%TO.P,U704,3,GND*%
%TO.N,GND*%
X186761000Y-120142000D03*
%TO.P,U704,4*%
%TO.N,Net-(OC701-Pad1)*%
X189036000Y-120142000D03*
%TO.P,U704,5,VCC*%
%TO.N,+3V3*%
X189036000Y-118242000D03*
%TD*%
D20*
%TO.P,OC402,1*%
%TO.N,BMS_OK_FINAL*%
X109474000Y-72704000D03*
%TO.P,OC402,2*%
%TO.N,Net-(OC402-Pad2)*%
X112014000Y-72704000D03*
%TO.P,OC402,3*%
%TO.N,Net-(Q402-S)*%
X112014000Y-66294000D03*
%TO.P,OC402,4*%
%TO.N,Net-(Q402-G)*%
X109474000Y-66294000D03*
%TD*%
%TO.P,OC403,1*%
%TO.N,MCU_OK*%
X117348000Y-72958000D03*
%TO.P,OC403,2*%
%TO.N,Net-(OC403-Pad2)*%
X119888000Y-72958000D03*
%TO.P,OC403,3*%
%TO.N,SAFETY_LOOP_OUT*%
X119888000Y-66548000D03*
%TO.P,OC403,4*%
%TO.N,Net-(Q403-G)*%
X117348000Y-66548000D03*
%TD*%
D22*
%TO.P,R508,1*%
%TO.N,Net-(D508-K)*%
X133775000Y-104110000D03*
%TO.P,R508,2*%
%TO.N,GND*%
X135425000Y-104110000D03*
%TD*%
D28*
%TO.P,R502,1*%
%TO.N,Net-(D502-K)*%
X128016000Y-121666000D03*
%TO.P,R502,2*%
%TO.N,GND*%
X128016000Y-123316000D03*
%TD*%
D36*
%TO.P,Q603,1,G*%
%TO.N,Net-(Q603-G)*%
X138666000Y-115041000D03*
%TO.P,Q603,2,S*%
%TO.N,CHRG+_PWR*%
X140566000Y-115041000D03*
%TO.P,Q603,3,D*%
%TO.N,SAFETY_LOOP_OUT*%
X139616000Y-113041000D03*
%TD*%
D37*
%TO.P,Y301,1,1*%
%TO.N,Net-(U301-PH1)*%
X156550000Y-59944000D03*
%TO.P,Y301,2,2*%
%TO.N,GND*%
X158750000Y-59944000D03*
%TO.P,Y301,3,3*%
%TO.N,Net-(U301-PH0)*%
X158750000Y-58244000D03*
%TO.P,Y301,4,4*%
%TO.N,GND*%
X156550000Y-58244000D03*
%TD*%
D38*
%TO.P,J105,1,Pin_1*%
%TO.N,+3V3*%
X119292000Y-53340000D03*
D39*
%TO.P,J105,2,Pin_2*%
%TO.N,PRECHRG_AUX*%
X119292000Y-57540000D03*
%TO.P,J105,3,Pin_3*%
%TO.N,PRECHRG_PWR*%
X113792000Y-53340000D03*
%TO.P,J105,4,Pin_4*%
%TO.N,GND*%
X113792000Y-57540000D03*
%TD*%
D28*
%TO.P,R507,1*%
%TO.N,Net-(D507-K)*%
X139045500Y-96140000D03*
%TO.P,R507,2*%
%TO.N,GND*%
X139045500Y-97790000D03*
%TD*%
D40*
%TO.P,C401,1*%
%TO.N,+3V3*%
X99060000Y-82804000D03*
%TO.P,C401,2*%
%TO.N,GND*%
X97510000Y-82804000D03*
%TD*%
D22*
%TO.P,R409,1*%
%TO.N,IMD_OK*%
X103124000Y-97536000D03*
%TO.P,R409,2*%
%TO.N,GND*%
X104774000Y-97536000D03*
%TD*%
D28*
%TO.P,R102,1*%
%TO.N,+3V3*%
X157988000Y-44704000D03*
%TO.P,R102,2*%
%TO.N,BMS_OUT2*%
X157988000Y-46354000D03*
%TD*%
D41*
%TO.P,C206,1*%
%TO.N,+3V3*%
X118793000Y-123748000D03*
%TO.P,C206,2*%
%TO.N,GND*%
X118793000Y-125298000D03*
%TD*%
D17*
%TO.P,C707,1*%
%TO.N,Net-(U703-+)*%
X177266000Y-94996000D03*
%TO.P,C707,2*%
%TO.N,Net-(U703--)*%
X178816000Y-94996000D03*
%TD*%
D22*
%TO.P,R607,1*%
%TO.N,Net-(Q606-G)*%
X166118000Y-62434000D03*
%TO.P,R607,2*%
%TO.N,GND*%
X167768000Y-62434000D03*
%TD*%
D28*
%TO.P,R709,1*%
%TO.N,Net-(U701-FB)*%
X212535000Y-62167000D03*
%TO.P,R709,2*%
%TO.N,Net-(D702-K)*%
X212535000Y-63817000D03*
%TD*%
D42*
%TO.P,D602,1,K*%
%TO.N,HVC-_PWR*%
X161816000Y-94585000D03*
%TO.P,D602,2,A*%
%TO.N,GND*%
X166116000Y-94585000D03*
%TD*%
D28*
%TO.P,R503,1*%
%TO.N,Net-(D503-K)*%
X131739358Y-121475000D03*
%TO.P,R503,2*%
%TO.N,GND*%
X131739358Y-123125000D03*
%TD*%
D41*
%TO.P,C703,1*%
%TO.N,HS+5V*%
X201371200Y-101460000D03*
%TO.P,C703,2*%
%TO.N,HSGND*%
X201371200Y-103010000D03*
%TD*%
D18*
%TO.P,D510,1,K*%
%TO.N,Net-(D510-K)*%
X127482500Y-60452000D03*
%TO.P,D510,2,A*%
%TO.N,PRECHRG_AUX*%
X129057500Y-60452000D03*
%TD*%
D40*
%TO.P,C308,1*%
%TO.N,Net-(U301-VCAP_1)*%
X143015000Y-75692000D03*
%TO.P,C308,2*%
%TO.N,GND*%
X141465000Y-75692000D03*
%TD*%
D22*
%TO.P,R603,1*%
%TO.N,Net-(OC603-Pad2)*%
X143697000Y-127605000D03*
%TO.P,R603,2*%
%TO.N,GND*%
X145347000Y-127605000D03*
%TD*%
%TO.P,R408,1*%
%TO.N,Net-(R407-Pad2)*%
X100584000Y-95504000D03*
%TO.P,R408,2*%
%TO.N,IMD_OK*%
X102234000Y-95504000D03*
%TD*%
D12*
%TO.P,D512,1,K*%
%TO.N,Net-(D512-K)*%
X135165500Y-93183000D03*
%TO.P,D512,2,A*%
%TO.N,DEBUG_2*%
X135165500Y-91608000D03*
%TD*%
D41*
%TO.P,C309,1*%
%TO.N,Net-(U301-NRST)*%
X166500000Y-68225000D03*
%TO.P,C309,2*%
%TO.N,GND*%
X166500000Y-69775000D03*
%TD*%
%TO.P,C706,1*%
%TO.N,Net-(D703-K)*%
X191516000Y-54851000D03*
%TO.P,C706,2*%
%TO.N,Net-(U701-VDD)*%
X191516000Y-56401000D03*
%TD*%
D43*
%TO.P,SW301,1,1*%
%TO.N,GND*%
X175300000Y-61650000D03*
%TO.P,SW301,2,2*%
%TO.N,Net-(U301-NRST)*%
X175300000Y-69400000D03*
%TD*%
D44*
%TO.P,J106,1,Pin_1*%
%TO.N,CHRG+_PWR*%
X153906000Y-118198000D03*
D24*
%TO.P,J106,2,Pin_2*%
%TO.N,CHRG-_PWR*%
X158106000Y-118198000D03*
%TO.P,J106,3,Pin_3*%
%TO.N,GND*%
X153906000Y-123698000D03*
%TO.P,J106,4,Pin_4*%
X158106000Y-123698000D03*
%TD*%
D28*
%TO.P,R512,1*%
%TO.N,Net-(D512-K)*%
X135128000Y-96140000D03*
%TO.P,R512,2*%
%TO.N,GND*%
X135128000Y-97790000D03*
%TD*%
D20*
%TO.P,OC604,1*%
%TO.N,CHRG-_EN*%
X173478000Y-112305000D03*
%TO.P,OC604,2*%
%TO.N,Net-(OC604-Pad2)*%
X170938000Y-112305000D03*
%TO.P,OC604,3*%
%TO.N,CHRG-_PWR*%
X170938000Y-118715000D03*
%TO.P,OC604,4*%
%TO.N,Net-(Q604-G)*%
X173478000Y-118715000D03*
%TD*%
D12*
%TO.P,D503,1,K*%
%TO.N,Net-(D503-K)*%
X131676358Y-119126000D03*
%TO.P,D503,2,A*%
%TO.N,+3V3*%
X131676358Y-117551000D03*
%TD*%
D28*
%TO.P,R707,1*%
%TO.N,Net-(U702-VIN)*%
X208584800Y-100012000D03*
%TO.P,R707,2*%
%TO.N,HSGND*%
X208584800Y-101662000D03*
%TD*%
D23*
%TO.P,J104,1,Pin_1*%
%TO.N,+3V3*%
X156464000Y-109229000D03*
D24*
%TO.P,J104,2,Pin_2*%
X152264000Y-109229000D03*
%TO.P,J104,3,Pin_3*%
%TO.N,HVC+_AUX*%
X148064000Y-109229000D03*
%TO.P,J104,4,Pin_4*%
%TO.N,HVC-_AUX*%
X143864000Y-109229000D03*
%TO.P,J104,5,Pin_5*%
%TO.N,HVC-_PWR*%
X156464000Y-103729000D03*
%TO.P,J104,6,Pin_6*%
%TO.N,HVC+_PWR*%
X152264000Y-103729000D03*
%TO.P,J104,7,Pin_7*%
%TO.N,GND*%
X148064000Y-103729000D03*
%TO.P,J104,8,Pin_8*%
X143864000Y-103729000D03*
%TD*%
D35*
%TO.P,U201,1,FB*%
%TO.N,+5V*%
X110755000Y-114432000D03*
%TO.P,U201,2,EN*%
%TO.N,+24V*%
X110755000Y-115382000D03*
%TO.P,U201,3,IN*%
X110755000Y-116332000D03*
%TO.P,U201,4,GND*%
%TO.N,GND*%
X113030000Y-116332000D03*
%TO.P,U201,5,SW*%
%TO.N,Net-(U201-SW)*%
X113030000Y-115382000D03*
%TO.P,U201,6,BST*%
%TO.N,Net-(U201-BST)*%
X113030000Y-114432000D03*
%TD*%
D40*
%TO.P,C402,1*%
%TO.N,+3V3*%
X99073000Y-81026000D03*
%TO.P,C402,2*%
%TO.N,GND*%
X97523000Y-81026000D03*
%TD*%
D45*
%TO.P,L701,1*%
%TO.N,Net-(D703-K)*%
X194062000Y-67818000D03*
%TO.P,L701,2*%
%TO.N,HS+5V*%
X203962000Y-67818000D03*
%TD*%
D41*
%TO.P,C306,1*%
%TO.N,GND*%
X154432000Y-58394000D03*
%TO.P,C306,2*%
%TO.N,Net-(U301-PH1)*%
X154432000Y-59944000D03*
%TD*%
D28*
%TO.P,R706,1*%
%TO.N,Net-(R705-Pad2)*%
X210312000Y-97536000D03*
%TO.P,R706,2*%
%TO.N,Net-(U702-VIN)*%
X210312000Y-99186000D03*
%TD*%
%TO.P,R601,1*%
%TO.N,Net-(OC601-Pad2)*%
X150368000Y-90204000D03*
%TO.P,R601,2*%
%TO.N,GND*%
X150368000Y-91854000D03*
%TD*%
D46*
%TO.P,J101,1,Pin_1*%
%TO.N,HSGND*%
X218694000Y-56896000D03*
D47*
%TO.P,J101,2,Pin_2*%
%TO.N,unconnected-(J101-Pin_2-Pad2)*%
X218694000Y-51816000D03*
%TO.P,J101,3,Pin_3*%
%TO.N,V_MTRCTRL*%
X218694000Y-46736000D03*
%TD*%
D28*
%TO.P,R505,1*%
%TO.N,Net-(D505-K)*%
X124800000Y-96203000D03*
%TO.P,R505,2*%
%TO.N,GND*%
X124800000Y-97853000D03*
%TD*%
D48*
%TO.P,U301,1,VBAT*%
%TO.N,+3V3*%
X155301000Y-66687000D03*
%TO.P,U301,2,PC13*%
%TO.N,unconnected-(U301-PC13-Pad2)*%
X154801000Y-66687000D03*
%TO.P,U301,3,PC14*%
%TO.N,unconnected-(U301-PC14-Pad3)*%
X154301000Y-66687000D03*
%TO.P,U301,4,PC15*%
%TO.N,unconnected-(U301-PC15-Pad4)*%
X153801000Y-66687000D03*
%TO.P,U301,5,PH0*%
%TO.N,Net-(U301-PH0)*%
X153301000Y-66687000D03*
%TO.P,U301,6,PH1*%
%TO.N,Net-(U301-PH1)*%
X152801000Y-66687000D03*
%TO.P,U301,7,NRST*%
%TO.N,Net-(U301-NRST)*%
X152301000Y-66687000D03*
%TO.P,U301,8,PC0*%
%TO.N,HVC-_EN*%
X151801000Y-66687000D03*
%TO.P,U301,9,PC1*%
%TO.N,HVC+_EN*%
X151301000Y-66687000D03*
%TO.P,U301,10,PC2*%
%TO.N,CHRG+_EN*%
X150801000Y-66687000D03*
%TO.P,U301,11,PC3*%
%TO.N,CHRG-_EN*%
X150301000Y-66687000D03*
%TO.P,U301,12,VSSA*%
%TO.N,GND*%
X149801000Y-66687000D03*
%TO.P,U301,13,VDDA*%
%TO.N,+3V3*%
X149301000Y-66687000D03*
%TO.P,U301,14,PA0*%
%TO.N,VSENSE_OUT*%
X148801000Y-66687000D03*
%TO.P,U301,15,PA1*%
%TO.N,BMS_OUT1*%
X148301000Y-66687000D03*
%TO.P,U301,16,PA2*%
%TO.N,BMS_OUT2*%
X147801000Y-66687000D03*
D49*
%TO.P,U301,17,PA3*%
%TO.N,BMS_OUT3*%
X145876000Y-68612000D03*
%TO.P,U301,18,VSS*%
%TO.N,GND*%
X145876000Y-69112000D03*
%TO.P,U301,19,VDD*%
%TO.N,+3V3*%
X145876000Y-69612000D03*
%TO.P,U301,20,PA4*%
%TO.N,NSS_SPI1*%
X145876000Y-70112000D03*
%TO.P,U301,21,PA5*%
%TO.N,CLK_SPI1*%
X145876000Y-70612000D03*
%TO.P,U301,22,PA6*%
%TO.N,MISO_SPI1*%
X145876000Y-71112000D03*
%TO.P,U301,23,PA7*%
%TO.N,MOSI_SPI1*%
X145876000Y-71612000D03*
%TO.P,U301,24,PC4*%
%TO.N,PRECHRG_EN*%
X145876000Y-72112000D03*
%TO.P,U301,25,PC5*%
%TO.N,IGNITION_SW*%
X145876000Y-72612000D03*
%TO.P,U301,26,PB0*%
%TO.N,CHARGE_SW*%
X145876000Y-73112000D03*
%TO.P,U301,27,PB1*%
%TO.N,DEBUG_1*%
X145876000Y-73612000D03*
%TO.P,U301,28,PB2*%
%TO.N,DEBUG_2*%
X145876000Y-74112000D03*
%TO.P,U301,29,PB10*%
%TO.N,unconnected-(U301-PB10-Pad29)*%
X145876000Y-74612000D03*
%TO.P,U301,30,PB11*%
%TO.N,unconnected-(U301-PB11-Pad30)*%
X145876000Y-75112000D03*
%TO.P,U301,31,VCAP_1*%
%TO.N,Net-(U301-VCAP_1)*%
X145876000Y-75612000D03*
%TO.P,U301,32,VDD*%
%TO.N,+3V3*%
X145876000Y-76112000D03*
D48*
%TO.P,U301,33,PB12*%
%TO.N,unconnected-(U301-PB12-Pad33)*%
X147801000Y-78037000D03*
%TO.P,U301,34,PB13*%
%TO.N,unconnected-(U301-PB13-Pad34)*%
X148301000Y-78037000D03*
%TO.P,U301,35,PB14*%
%TO.N,unconnected-(U301-PB14-Pad35)*%
X148801000Y-78037000D03*
%TO.P,U301,36,PB15*%
%TO.N,unconnected-(U301-PB15-Pad36)*%
X149301000Y-78037000D03*
%TO.P,U301,37,PC6*%
%TO.N,unconnected-(U301-PC6-Pad37)*%
X149801000Y-78037000D03*
%TO.P,U301,38,PC7*%
%TO.N,PUMP_EN*%
X150301000Y-78037000D03*
%TO.P,U301,39,PC8*%
%TO.N,TEMP_A*%
X150801000Y-78037000D03*
%TO.P,U301,40,PC9*%
%TO.N,unconnected-(U301-PC9-Pad40)*%
X151301000Y-78037000D03*
%TO.P,U301,41,PA8*%
%TO.N,MCU_OK*%
X151801000Y-78037000D03*
%TO.P,U301,42,PA9*%
%TO.N,SAFETY_LOOP_ST*%
X152301000Y-78037000D03*
%TO.P,U301,43,PA10*%
%TO.N,unconnected-(U301-PA10-Pad43)*%
X152801000Y-78037000D03*
%TO.P,U301,44,PA11*%
%TO.N,unconnected-(U301-PA11-Pad44)*%
X153301000Y-78037000D03*
%TO.P,U301,45,PA12*%
%TO.N,unconnected-(U301-PA12-Pad45)*%
X153801000Y-78037000D03*
%TO.P,U301,46,PA13*%
%TO.N,SWDIO*%
X154301000Y-78037000D03*
%TO.P,U301,47,VCAP_2*%
%TO.N,Net-(U301-VCAP_2)*%
X154801000Y-78037000D03*
%TO.P,U301,48,VDD*%
%TO.N,+3V3*%
X155301000Y-78037000D03*
D49*
%TO.P,U301,49,PA14*%
%TO.N,SWDCLK*%
X157226000Y-76112000D03*
%TO.P,U301,50,PA15*%
%TO.N,unconnected-(U301-PA15-Pad50)*%
X157226000Y-75612000D03*
%TO.P,U301,51,PC10*%
%TO.N,unconnected-(U301-PC10-Pad51)*%
X157226000Y-75112000D03*
%TO.P,U301,52,PC11*%
%TO.N,unconnected-(U301-PC11-Pad52)*%
X157226000Y-74612000D03*
%TO.P,U301,53,PC12*%
%TO.N,unconnected-(U301-PC12-Pad53)*%
X157226000Y-74112000D03*
%TO.P,U301,54,PD2*%
%TO.N,unconnected-(U301-PD2-Pad54)*%
X157226000Y-73612000D03*
%TO.P,U301,55,PB3*%
%TO.N,SWO*%
X157226000Y-73112000D03*
%TO.P,U301,56,PB4*%
%TO.N,HVC+_AUX*%
X157226000Y-72612000D03*
%TO.P,U301,57,PB5*%
%TO.N,HVC-_AUX*%
X157226000Y-72112000D03*
%TO.P,U301,58,PB6*%
%TO.N,PRECHRG_AUX*%
X157226000Y-71612000D03*
%TO.P,U301,59,PB7*%
%TO.N,Net-(U301-PB7)*%
X157226000Y-71112000D03*
%TO.P,U301,60,BOOT0*%
%TO.N,Net-(U301-BOOT0)*%
X157226000Y-70612000D03*
%TO.P,U301,61,PB8*%
%TO.N,unconnected-(U301-PB8-Pad61)*%
X157226000Y-70112000D03*
%TO.P,U301,62,PB9*%
%TO.N,unconnected-(U301-PB9-Pad62)*%
X157226000Y-69612000D03*
%TO.P,U301,63,VSS*%
%TO.N,GND*%
X157226000Y-69112000D03*
%TO.P,U301,64,VDD*%
%TO.N,+3V3*%
X157226000Y-68612000D03*
%TD*%
D17*
%TO.P,C701,1*%
%TO.N,Net-(D703-K)*%
X201930000Y-60198000D03*
%TO.P,C701,2*%
%TO.N,Net-(D702-K)*%
X203480000Y-60198000D03*
%TD*%
D21*
%TO.P,C304,1*%
%TO.N,+3V3*%
X149352000Y-64275000D03*
%TO.P,C304,2*%
%TO.N,GND*%
X149352000Y-62725000D03*
%TD*%
%TO.P,C204,1*%
%TO.N,+5V*%
X112014000Y-111278000D03*
%TO.P,C204,2*%
%TO.N,GND*%
X112014000Y-109728000D03*
%TD*%
D44*
%TO.P,J102,1,Pin_1*%
%TO.N,BMS_OUT3*%
X149030000Y-45264000D03*
D24*
%TO.P,J102,2,Pin_2*%
%TO.N,BMS_OUT2*%
X153230000Y-45264000D03*
%TO.P,J102,3,Pin_3*%
%TO.N,BMS_OUT1*%
X149030000Y-50764000D03*
%TO.P,J102,4,Pin_4*%
%TO.N,PUMP_N*%
X153230000Y-50764000D03*
%TD*%
D36*
%TO.P,Q403,1,G*%
%TO.N,Net-(Q403-G)*%
X117922000Y-63694000D03*
%TO.P,Q403,2,S*%
%TO.N,SAFETY_LOOP_OUT*%
X119822000Y-63694000D03*
%TO.P,Q403,3,D*%
%TO.N,Net-(Q402-S)*%
X118872000Y-61694000D03*
%TD*%
D21*
%TO.P,C303,1*%
%TO.N,+3V3*%
X157226000Y-66307000D03*
%TO.P,C303,2*%
%TO.N,GND*%
X157226000Y-64757000D03*
%TD*%
D50*
%TO.P,JP402,1,A*%
%TO.N,BMS_OK_LATCHED*%
X110774000Y-76043000D03*
%TO.P,JP402,2,C*%
%TO.N,BMS_OK_FINAL*%
X109474000Y-76043000D03*
%TO.P,JP402,3,B*%
%TO.N,BMS_OUT1*%
X108174000Y-76043000D03*
%TD*%
D22*
%TO.P,R406,1*%
%TO.N,SAFETY_LOOP_ST*%
X127128000Y-66425000D03*
%TO.P,R406,2*%
%TO.N,GND*%
X128778000Y-66425000D03*
%TD*%
D33*
%TO.P,OC602,1*%
%TO.N,HVC-_EN*%
X172369000Y-101346000D03*
%TO.P,OC602,2*%
%TO.N,Net-(OC602-Pad2)*%
X172369000Y-98806000D03*
%TO.P,OC602,3*%
%TO.N,HVC-_PWR*%
X165959000Y-98806000D03*
%TO.P,OC602,4*%
%TO.N,Net-(Q602-G)*%
X165959000Y-101346000D03*
%TD*%
D12*
%TO.P,D502,1,K*%
%TO.N,Net-(D502-K)*%
X127888000Y-119200500D03*
%TO.P,D502,2,A*%
%TO.N,+5V*%
X127888000Y-117625500D03*
%TD*%
D41*
%TO.P,C704,1*%
%TO.N,+3V3*%
X189230000Y-101587000D03*
%TO.P,C704,2*%
%TO.N,GND*%
X189230000Y-103137000D03*
%TD*%
D51*
%TO.P,U701,1,GND*%
%TO.N,Net-(D703-K)*%
X193929000Y-53962000D03*
%TO.P,U701,2,GND*%
X195199000Y-53962000D03*
%TO.P,U701,3,FB*%
%TO.N,Net-(U701-FB)*%
X196469000Y-53962000D03*
%TO.P,U701,4,VDD*%
%TO.N,Net-(U701-VDD)*%
X197739000Y-53962000D03*
%TO.P,U701,5,HVIN*%
%TO.N,Net-(U701-DRAIN)*%
X197739000Y-49162000D03*
%TO.P,U701,6,NC*%
%TO.N,unconnected-(U701-NC-Pad6)*%
X196469000Y-49162000D03*
%TO.P,U701,8,DRAIN*%
%TO.N,Net-(U701-DRAIN)*%
X193929000Y-49162000D03*
%TD*%
D41*
%TO.P,C301,1*%
%TO.N,+3V3*%
X145288000Y-77711000D03*
%TO.P,C301,2*%
%TO.N,GND*%
X145288000Y-79261000D03*
%TD*%
D28*
%TO.P,R702,1*%
%TO.N,V_MTRCTRL*%
X210566000Y-87567000D03*
%TO.P,R702,2*%
%TO.N,Net-(R702-Pad2)*%
X210566000Y-89217000D03*
%TD*%
D36*
%TO.P,Q401,1,G*%
%TO.N,Net-(Q401-G)*%
X102240000Y-63980000D03*
%TO.P,Q401,2,S*%
%TO.N,Net-(Q401-S)*%
X104140000Y-63980000D03*
%TO.P,Q401,3,D*%
%TO.N,SAFETY_LOOP_IN*%
X103190000Y-61980000D03*
%TD*%
D22*
%TO.P,R510,1*%
%TO.N,Net-(D510-K)*%
X127445000Y-62992000D03*
%TO.P,R510,2*%
%TO.N,GND*%
X129095000Y-62992000D03*
%TD*%
D28*
%TO.P,R708,1*%
%TO.N,Net-(OC701-Pad2)*%
X189544000Y-122810000D03*
%TO.P,R708,2*%
%TO.N,GND*%
X189544000Y-124460000D03*
%TD*%
D33*
%TO.P,OC605,1*%
%TO.N,PRECHRG_EN*%
X108310000Y-45602000D03*
%TO.P,OC605,2*%
%TO.N,Net-(OC605-Pad2)*%
X108310000Y-48142000D03*
%TO.P,OC605,3*%
%TO.N,PRECHRG_PWR*%
X114720000Y-48142000D03*
%TO.P,OC605,4*%
%TO.N,Net-(Q605-G)*%
X114720000Y-45602000D03*
%TD*%
D52*
%TO.P,R717,1*%
%TO.N,Net-(R716-Pad2)*%
X219012000Y-103082000D03*
D53*
%TO.P,R717,2*%
%TO.N,Net-(Q701-D)*%
X219012000Y-113982000D03*
%TD*%
D29*
%TO.P,R712,1*%
%TO.N,Net-(U701-FB)*%
X209105000Y-60452000D03*
%TO.P,R712,2*%
%TO.N,Net-(D703-K)*%
X207455000Y-60452000D03*
%TD*%
D54*
%TO.P,Q601,1,G*%
%TO.N,Net-(Q601-G)*%
X156668000Y-96125000D03*
%TO.P,Q601,2,S*%
%TO.N,HVC+_PWR*%
X154768000Y-96125000D03*
%TO.P,Q601,3,D*%
%TO.N,SAFETY_LOOP_OUT*%
X155718000Y-98125000D03*
%TD*%
D28*
%TO.P,R401,1*%
%TO.N,Net-(OC401-Pad2)*%
X104140000Y-75629000D03*
%TO.P,R401,2*%
%TO.N,GND*%
X104140000Y-77279000D03*
%TD*%
D55*
%TO.P,U703,1,+*%
%TO.N,Net-(U703-+)*%
X177262000Y-91440000D03*
%TO.P,U703,2,V-*%
%TO.N,GND*%
X177912000Y-91440000D03*
%TO.P,U703,3,-*%
%TO.N,Net-(U703--)*%
X178562000Y-91440000D03*
%TO.P,U703,4*%
%TO.N,VSENSE_OUT*%
X178562000Y-89540000D03*
%TO.P,U703,5,V+*%
%TO.N,+3V3*%
X177262000Y-89540000D03*
%TD*%
D28*
%TO.P,R511,1*%
%TO.N,Net-(D511-K)*%
X131500000Y-96140000D03*
%TO.P,R511,2*%
%TO.N,GND*%
X131500000Y-97790000D03*
%TD*%
D22*
%TO.P,R701,1*%
%TO.N,Net-(U701-DRAIN)*%
X209487000Y-44704000D03*
%TO.P,R701,2*%
%TO.N,V_MTRCTRL*%
X211137000Y-44704000D03*
%TD*%
%TO.P,R405,1*%
%TO.N,SAFETY_LOOP_OUT*%
X123127000Y-66425000D03*
%TO.P,R405,2*%
%TO.N,SAFETY_LOOP_ST*%
X124777000Y-66425000D03*
%TD*%
%TO.P,R504,1*%
%TO.N,Net-(D504-K)*%
X117375000Y-81900000D03*
%TO.P,R504,2*%
%TO.N,GND*%
X119025000Y-81900000D03*
%TD*%
D19*
%TO.P,D605,1,K*%
%TO.N,PRECHRG_PWR*%
X104902000Y-52850000D03*
%TO.P,D605,2,A*%
%TO.N,GND*%
X104902000Y-57150000D03*
%TD*%
D12*
%TO.P,D507,1,K*%
%TO.N,Net-(D507-K)*%
X139000000Y-93243500D03*
%TO.P,D507,2,A*%
%TO.N,SAFETY_LOOP_OUT*%
X139000000Y-91668500D03*
%TD*%
D20*
%TO.P,OC601,1*%
%TO.N,HVC+_EN*%
X157069000Y-86964000D03*
%TO.P,OC601,2*%
%TO.N,Net-(OC601-Pad2)*%
X154529000Y-86964000D03*
%TO.P,OC601,3*%
%TO.N,HVC+_PWR*%
X154529000Y-93374000D03*
%TO.P,OC601,4*%
%TO.N,Net-(Q601-G)*%
X157069000Y-93374000D03*
%TD*%
D56*
%TO.P,U702,1,VDD1*%
%TO.N,HS+5V*%
X199898000Y-99568000D03*
%TO.P,U702,2,VIN*%
%TO.N,Net-(U702-VIN)*%
X199898000Y-98298000D03*
%TO.P,U702,3,SHTDN*%
%TO.N,HSGND*%
X199898000Y-97028000D03*
%TO.P,U702,4,GND1*%
X199898000Y-95758000D03*
%TO.P,U702,5,GND2*%
%TO.N,GND*%
X189128400Y-95758000D03*
%TO.P,U702,6,VOUTN*%
%TO.N,VDIFFN*%
X189128400Y-97028000D03*
%TO.P,U702,7,VOUTP*%
%TO.N,VDIFFP*%
X189128400Y-98298000D03*
%TO.P,U702,8,VDD2*%
%TO.N,+3V3*%
X189128400Y-99568000D03*
%TD*%
D28*
%TO.P,R501,1*%
%TO.N,Net-(D501-K)*%
X124015000Y-121399000D03*
%TO.P,R501,2*%
%TO.N,GND*%
X124015000Y-123049000D03*
%TD*%
D17*
%TO.P,C302,1*%
%TO.N,+3V3*%
X157454000Y-78486000D03*
%TO.P,C302,2*%
%TO.N,GND*%
X159004000Y-78486000D03*
%TD*%
D22*
%TO.P,R718,1*%
%TO.N,Net-(D701-K)*%
X218314000Y-69342000D03*
%TO.P,R718,2*%
%TO.N,HSGND*%
X219964000Y-69342000D03*
%TD*%
D21*
%TO.P,C305,1*%
%TO.N,GND*%
X161036000Y-59957000D03*
%TO.P,C305,2*%
%TO.N,Net-(U301-PH0)*%
X161036000Y-58407000D03*
%TD*%
D22*
%TO.P,R103,1*%
%TO.N,+3V3*%
X142939000Y-45466000D03*
%TO.P,R103,2*%
%TO.N,BMS_OUT3*%
X144589000Y-45466000D03*
%TD*%
%TO.P,R407,1*%
%TO.N,IMD_OK_IN*%
X98235000Y-97536000D03*
%TO.P,R407,2*%
%TO.N,Net-(R407-Pad2)*%
X99885000Y-97536000D03*
%TD*%
%TO.P,R101,1*%
%TO.N,+3V3*%
X142939000Y-51054000D03*
%TO.P,R101,2*%
%TO.N,BMS_OUT1*%
X144589000Y-51054000D03*
%TD*%
D36*
%TO.P,Q402,1,G*%
%TO.N,Net-(Q402-G)*%
X109728000Y-63726000D03*
%TO.P,Q402,2,S*%
%TO.N,Net-(Q402-S)*%
X111628000Y-63726000D03*
%TO.P,Q402,3,D*%
%TO.N,Net-(Q401-S)*%
X110678000Y-61726000D03*
%TD*%
D57*
%TO.P,J110,1,Pin_1*%
%TO.N,+3V3*%
X112014000Y-90424000D03*
D39*
%TO.P,J110,2,Pin_2*%
%TO.N,LATCH_RST*%
X112014000Y-86224000D03*
%TO.P,J110,3,Pin_3*%
%TO.N,SWIM*%
X117514000Y-90424000D03*
%TO.P,J110,4,Pin_4*%
%TO.N,STM8_NRST*%
X117514000Y-86224000D03*
%TD*%
D20*
%TO.P,OC603,1*%
%TO.N,CHRG+_EN*%
X138269000Y-124714000D03*
%TO.P,OC603,2*%
%TO.N,Net-(OC603-Pad2)*%
X140809000Y-124714000D03*
%TO.P,OC603,3*%
%TO.N,CHRG+_PWR*%
X140809000Y-118304000D03*
%TO.P,OC603,4*%
%TO.N,Net-(Q603-G)*%
X138269000Y-118304000D03*
%TD*%
D22*
%TO.P,R301,1*%
%TO.N,Net-(U301-BOOT0)*%
X162180000Y-69596000D03*
%TO.P,R301,2*%
%TO.N,GND*%
X163830000Y-69596000D03*
%TD*%
D52*
%TO.P,R716,1*%
%TO.N,V_MTRCTRL*%
X217250000Y-79000000D03*
D53*
%TO.P,R716,2*%
%TO.N,Net-(R716-Pad2)*%
X217250000Y-89900000D03*
%TD*%
D46*
%TO.P,J111,1,Pin_1*%
%TO.N,+24V*%
X100584000Y-115570000D03*
D47*
%TO.P,J111,2,Pin_2*%
%TO.N,unconnected-(J111-Pin_2-Pad2)*%
X100584000Y-120650000D03*
%TO.P,J111,3,Pin_3*%
%TO.N,GND*%
X100584000Y-125730000D03*
%TD*%
D57*
%TO.P,J103,1,Pin_1*%
%TO.N,+3V3*%
X130644000Y-74812000D03*
D39*
%TO.P,J103,2,Pin_2*%
X130644000Y-70612000D03*
%TO.P,J103,3,Pin_3*%
%TO.N,CHARGE_SW*%
X136144000Y-74812000D03*
%TO.P,J103,4,Pin_4*%
%TO.N,IGNITION_SW*%
X136144000Y-70612000D03*
%TD*%
D12*
%TO.P,D511,1,K*%
%TO.N,Net-(D511-K)*%
X131500000Y-93287500D03*
%TO.P,D511,2,A*%
%TO.N,DEBUG_1*%
X131500000Y-91712500D03*
%TD*%
D58*
%TO.P,Q605,1,G*%
%TO.N,Net-(Q605-G)*%
X117380000Y-45840000D03*
%TO.P,Q605,2,S*%
%TO.N,PRECHRG_PWR*%
X117380000Y-47740000D03*
%TO.P,Q605,3,D*%
%TO.N,SAFETY_LOOP_OUT*%
X119380000Y-46790000D03*
%TD*%
D18*
%TO.P,D508,1,K*%
%TO.N,Net-(D508-K)*%
X133850000Y-106040001D03*
%TO.P,D508,2,A*%
%TO.N,HVC+_AUX*%
X135425000Y-106040001D03*
%TD*%
D22*
%TO.P,R509,1*%
%TO.N,Net-(D509-K)*%
X133775000Y-110110000D03*
%TO.P,R509,2*%
%TO.N,GND*%
X135425000Y-110110000D03*
%TD*%
D29*
%TO.P,R711,1*%
%TO.N,VDIFFN*%
X185229000Y-96520000D03*
%TO.P,R711,2*%
%TO.N,Net-(U703--)*%
X183579000Y-96520000D03*
%TD*%
D59*
%TO.P,C708,1*%
%TO.N,HSGND*%
X202389000Y-77978000D03*
%TO.P,C708,2*%
%TO.N,HS+5V*%
X199439000Y-77978000D03*
%TD*%
D28*
%TO.P,R305,1*%
%TO.N,Net-(U301-PB7)*%
X115570000Y-104839000D03*
%TO.P,R305,2*%
%TO.N,GND*%
X115570000Y-106489000D03*
%TD*%
D38*
%TO.P,J107,1,Pin_1*%
%TO.N,+3V3*%
X143002000Y-55608000D03*
D39*
%TO.P,J107,2,Pin_2*%
%TO.N,NSS_SPI1*%
X143002000Y-59808000D03*
%TO.P,J107,3,Pin_3*%
%TO.N,CLK_SPI1*%
X143002000Y-64008000D03*
%TO.P,J107,4,Pin_4*%
%TO.N,MISO_SPI1*%
X137502000Y-55608000D03*
%TO.P,J107,5,Pin_5*%
%TO.N,MOSI_SPI1*%
X137502000Y-59808000D03*
%TO.P,J107,6,Pin_6*%
%TO.N,GND*%
X137502000Y-64008000D03*
%TD*%
D28*
%TO.P,R714,1*%
%TO.N,Net-(U703-+)*%
X177292000Y-98298000D03*
%TO.P,R714,2*%
%TO.N,GND*%
X177292000Y-99948000D03*
%TD*%
D21*
%TO.P,C702,1*%
%TO.N,Net-(U702-VIN)*%
X202641200Y-98565000D03*
%TO.P,C702,2*%
%TO.N,HSGND*%
X202641200Y-97015000D03*
%TD*%
D57*
%TO.P,J109,1,Pin_1*%
%TO.N,+24V*%
X98132000Y-107442000D03*
D39*
%TO.P,J109,2,Pin_2*%
%TO.N,IMD_OK_IN*%
X98132000Y-103242000D03*
%TO.P,J109,3,Pin_3*%
%TO.N,IMD_IO_H*%
X103632000Y-107442000D03*
%TO.P,J109,4,Pin_4*%
%TO.N,SAFETY_LOOP_IN*%
X103632000Y-103242000D03*
%TD*%
D60*
%TO.P,Q701,1,G*%
%TO.N,Net-(Q701-G)*%
X204012000Y-118248000D03*
D61*
%TO.P,Q701,2,D*%
%TO.N,Net-(Q701-D)*%
X210312000Y-120528000D03*
D60*
%TO.P,Q701,3,S*%
%TO.N,HSGND*%
X204012000Y-122808000D03*
%TD*%
D50*
%TO.P,JP401,1,A*%
%TO.N,IMD_OK_LATCHED*%
X100868000Y-76200000D03*
%TO.P,JP401,2,C*%
%TO.N,IMD_OK_FINAL*%
X99568000Y-76200000D03*
%TO.P,JP401,3,B*%
%TO.N,IMD_OK*%
X98268000Y-76200000D03*
%TD*%
D62*
%TO.P,Q606,1,G*%
%TO.N,Net-(Q606-G)*%
X169320000Y-53400000D03*
D63*
%TO.P,Q606,2,D*%
%TO.N,PUMP_N*%
X171600000Y-47100000D03*
D62*
%TO.P,Q606,3,S*%
%TO.N,GND*%
X173880000Y-53400000D03*
%TD*%
D21*
%TO.P,C203,1*%
%TO.N,+5V*%
X115303000Y-111265000D03*
%TO.P,C203,2*%
%TO.N,GND*%
X115303000Y-109715000D03*
%TD*%
D16*
%TO.P,R403,1*%
%TO.N,Net-(OC403-Pad2)*%
X122365000Y-73215000D03*
%TO.P,R403,2*%
%TO.N,GND*%
X122365000Y-71565000D03*
%TD*%
D41*
%TO.P,C202,1*%
%TO.N,Net-(U201-BST)*%
X115316000Y-114300000D03*
%TO.P,C202,2*%
%TO.N,Net-(U201-SW)*%
X115316000Y-115850000D03*
%TD*%
D64*
%TO.P,U202,1,GND*%
%TO.N,GND*%
X116434000Y-125504000D03*
%TO.P,U202,2,VO*%
%TO.N,+3V3*%
X116434000Y-123204000D03*
D65*
X110134000Y-123204000D03*
D64*
%TO.P,U202,3,VI*%
%TO.N,+5V*%
X116434000Y-120904000D03*
%TD*%
D26*
%TO.P,D701,1,K*%
%TO.N,Net-(D701-K)*%
X216091000Y-69342000D03*
%TO.P,D701,2,A*%
%TO.N,HS+5V*%
X214516000Y-69342000D03*
%TD*%
D28*
%TO.P,R506,1*%
%TO.N,Net-(D506-K)*%
X128100000Y-96200000D03*
%TO.P,R506,2*%
%TO.N,GND*%
X128100000Y-97850000D03*
%TD*%
D66*
%TO.P,Q602,1,G*%
%TO.N,Net-(Q602-G)*%
X163052000Y-100361000D03*
%TO.P,Q602,2,S*%
%TO.N,HVC-_PWR*%
X163052000Y-98461000D03*
%TO.P,Q602,3,D*%
%TO.N,SAFETY_LOOP_OUT*%
X161052000Y-99411000D03*
%TD*%
D16*
%TO.P,R715,1*%
%TO.N,Net-(U703--)*%
X180706000Y-91315000D03*
%TO.P,R715,2*%
%TO.N,VSENSE_OUT*%
X180706000Y-89665000D03*
%TD*%
D29*
%TO.P,R602,1*%
%TO.N,Net-(OC602-Pad2)*%
X171704000Y-96109000D03*
%TO.P,R602,2*%
%TO.N,GND*%
X170054000Y-96109000D03*
%TD*%
D67*
%TO.P,D703,1,K*%
%TO.N,Net-(D703-K)*%
X196254000Y-59182000D03*
D68*
%TO.P,D703,2,A*%
%TO.N,HSGND*%
X198629000Y-59182000D03*
%TD*%
D41*
%TO.P,C307,1*%
%TO.N,Net-(U301-VCAP_2)*%
X154940000Y-80518000D03*
%TO.P,C307,2*%
%TO.N,GND*%
X154940000Y-82068000D03*
%TD*%
D22*
%TO.P,R402,1*%
%TO.N,Net-(OC402-Pad2)*%
X114237000Y-76043000D03*
%TO.P,R402,2*%
%TO.N,GND*%
X115887000Y-76043000D03*
%TD*%
D54*
%TO.P,Q604,1,G*%
%TO.N,Net-(Q604-G)*%
X172838000Y-121509000D03*
%TO.P,Q604,2,S*%
%TO.N,CHRG-_PWR*%
X170938000Y-121509000D03*
%TO.P,Q604,3,D*%
%TO.N,SAFETY_LOOP_OUT*%
X171888000Y-123509000D03*
%TD*%
D28*
%TO.P,R604,1*%
%TO.N,Net-(OC604-Pad2)*%
X168144000Y-113064000D03*
%TO.P,R604,2*%
%TO.N,GND*%
X168144000Y-114714000D03*
%TD*%
D69*
%TO.N,GND*%
X131572000Y-124206000D03*
X117094000Y-75946000D03*
X149801000Y-68385000D03*
D70*
X134500000Y-111750000D03*
D69*
X102870000Y-76200000D03*
X160020000Y-61350000D03*
D70*
X154940000Y-83566000D03*
D69*
X122428000Y-70358000D03*
X177292000Y-101346000D03*
D70*
X170180000Y-58928000D03*
D69*
X96520000Y-81026000D03*
X140208000Y-100330000D03*
D70*
X141478000Y-74422000D03*
X189484000Y-125984000D03*
D69*
X114046000Y-117856000D03*
D70*
X145288000Y-80518000D03*
X155956000Y-64770000D03*
X115316000Y-108458000D03*
X172466000Y-56642000D03*
D69*
X105918000Y-97536000D03*
D70*
X160274000Y-78740000D03*
X168144000Y-115921000D03*
X160240000Y-69870000D03*
X112014000Y-108458000D03*
D69*
X96520000Y-82804000D03*
D70*
X108712000Y-110744000D03*
D69*
X177800000Y-92964000D03*
D70*
X187452000Y-93980000D03*
X135750000Y-102750000D03*
X186182000Y-121920000D03*
D69*
X167640000Y-91186000D03*
D70*
X119228000Y-126746000D03*
X146812000Y-81280000D03*
D69*
X130111000Y-64008000D03*
X154432000Y-56896000D03*
D70*
X175300000Y-59937000D03*
D69*
X103886000Y-80518000D03*
X150876000Y-62484000D03*
D70*
X129925000Y-66425000D03*
X114300000Y-106680000D03*
X188468000Y-105156000D03*
X147320000Y-69088000D03*
D69*
X120400000Y-81900000D03*
D70*
X171196000Y-57912000D03*
D69*
X128016000Y-124714000D03*
X179832000Y-87762000D03*
X125285000Y-123177000D03*
D70*
X173736000Y-55372000D03*
D69*
%TO.N,+3V3*%
X158496000Y-81534000D03*
X121666000Y-121666000D03*
D70*
X146558000Y-83820000D03*
X110084000Y-127558000D03*
X187160000Y-101166000D03*
X141224000Y-45466000D03*
X107544000Y-123190000D03*
D69*
X147574000Y-75946000D03*
X150622000Y-63754000D03*
X175768000Y-87762000D03*
X157734000Y-67462000D03*
D70*
X187960000Y-115062000D03*
X159004000Y-68580000D03*
D69*
X100076000Y-81788000D03*
D70*
X144272000Y-68326000D03*
X141478000Y-51054000D03*
X158242000Y-43434000D03*
D69*
X129794000Y-117602000D03*
%TO.N,Net-(U301-PH0)*%
X160528000Y-56896000D03*
X154725880Y-64607000D03*
%TO.N,Net-(U301-NRST)*%
X160528000Y-68326000D03*
X152654000Y-68834000D03*
X170304000Y-76500000D03*
X175300000Y-76500000D03*
%TO.N,HSGND*%
X215646000Y-63500000D03*
D70*
X203708000Y-96012000D03*
D69*
X204470000Y-101600000D03*
D70*
X204420000Y-125880000D03*
D69*
X204470000Y-77978000D03*
D70*
X204216000Y-127254000D03*
D69*
X198628000Y-60960000D03*
D70*
X204440000Y-124850000D03*
%TO.N,HS+5V*%
X200660000Y-92710000D03*
D69*
X199644000Y-101600000D03*
%TO.N,BMS_OUT1*%
X108204000Y-78486000D03*
D70*
X148076321Y-61716321D03*
D69*
X148390339Y-68249150D03*
D70*
X148301000Y-65224000D03*
%TO.N,BMS_OUT3*%
X145542000Y-67818000D03*
X146304000Y-53848000D03*
X146304000Y-65786000D03*
X146304000Y-51308000D03*
D69*
%TO.N,Net-(U301-PH1)*%
X153209620Y-64709620D03*
X153924000Y-61350000D03*
%TO.N,SAFETY_LOOP_ST*%
X152908000Y-75184000D03*
X145796000Y-82042000D03*
X127128000Y-73786000D03*
X152400000Y-76708000D03*
%TO.N,SAFETY_LOOP_OUT*%
X120650000Y-48768000D03*
X153670000Y-99060000D03*
X135382000Y-83566000D03*
X121666000Y-62484000D03*
X139192000Y-87376000D03*
X139616000Y-113041000D03*
X143764000Y-113030000D03*
%TO.N,VSENSE_OUT*%
X174498000Y-75184000D03*
X154686000Y-68072000D03*
D70*
%TO.N,MISO_SPI1*%
X143510000Y-71374000D03*
X147828000Y-71374000D03*
D69*
%TO.N,HVC+_AUX*%
X146500000Y-111000000D03*
X141514000Y-111500000D03*
X159781354Y-72464361D03*
D70*
%TO.N,SWDCLK*%
X159004000Y-76008000D03*
D69*
%TO.N,HVC+_EN*%
X156972000Y-84582000D03*
X159766000Y-63246000D03*
%TO.N,PRECHRG_AUX*%
X141230050Y-71962000D03*
X155702000Y-72136000D03*
X148336000Y-72136000D03*
X154178000Y-74168000D03*
D70*
%TO.N,SWO*%
X162560000Y-75946000D03*
D69*
%TO.N,HVC-_EN*%
X162052000Y-65278000D03*
X160274000Y-64516000D03*
D70*
%TO.N,HVC-_AUX*%
X137250000Y-109000000D03*
D69*
X159512000Y-71374000D03*
%TO.N,CHRG+_EN*%
X150876000Y-68326000D03*
X143510000Y-77724000D03*
D70*
%TO.N,HVC-_PWR*%
X159766000Y-94585000D03*
D69*
%TO.N,IMD_OK_FINAL*%
X109724620Y-80424620D03*
X102100000Y-78000000D03*
%TO.N,BMS_OK_FINAL*%
X109474000Y-78740000D03*
X110424620Y-79724620D03*
D70*
%TO.N,SAFETY_LOOP_IN*%
X107442000Y-101346000D03*
D69*
X99568000Y-61722000D03*
%TO.N,LATCH_RST*%
X105798257Y-87241743D03*
X107188000Y-86868000D03*
%TO.N,DEBUG_1*%
X144000000Y-74500000D03*
X141514001Y-80385238D03*
%TO.N,DEBUG_2*%
X138500000Y-74000000D03*
X141500000Y-81392000D03*
%TO.N,Net-(U301-PB7)*%
X117856000Y-103124000D03*
D70*
X142494000Y-78486000D03*
X155702000Y-71120000D03*
D69*
X142494000Y-82804000D03*
%TO.N,Net-(U701-VDD)*%
X199390000Y-54102000D03*
X191516000Y-57912000D03*
%TD*%
D71*
%TO.N,GND*%
X103886000Y-83901501D02*
X103318000Y-84469501D01*
X147296000Y-69112000D02*
X147320000Y-69088000D01*
D72*
X189230000Y-103137000D02*
X189230000Y-104394000D01*
X113792000Y-57540000D02*
X105292000Y-57540000D01*
D73*
X167768000Y-61340000D02*
X167768000Y-62434000D01*
D72*
X131500000Y-97790000D02*
X132100000Y-97790000D01*
D71*
X186761000Y-121341000D02*
X186182000Y-121920000D01*
X150368000Y-91854000D02*
X150368000Y-93241000D01*
X125157000Y-123049000D02*
X125285000Y-123177000D01*
D72*
X177912000Y-92852000D02*
X177800000Y-92964000D01*
X148414500Y-81105000D02*
X146987000Y-81105000D01*
D73*
X148064000Y-98509000D02*
X146582000Y-97027000D01*
X148064000Y-103729000D02*
X148064000Y-98509000D01*
X173880000Y-53400000D02*
X173880000Y-55228000D01*
D71*
X158862120Y-69870000D02*
X160240000Y-69870000D01*
X150368000Y-93241000D02*
X146582000Y-97027000D01*
D72*
X139045500Y-97790000D02*
X139045500Y-99167500D01*
X132040000Y-97850000D02*
X132100000Y-97790000D01*
X163440000Y-123698000D02*
X164592000Y-122546000D01*
D71*
X156550000Y-58244000D02*
X156456000Y-58244000D01*
X170054000Y-96109000D02*
X167640000Y-96109000D01*
X104497000Y-48650000D02*
X103402000Y-49745000D01*
D72*
X108712000Y-112014000D02*
X108712000Y-110744000D01*
X189128400Y-95656400D02*
X189128400Y-95758000D01*
D71*
X131739358Y-124038642D02*
X131739358Y-123125000D01*
D72*
X97510000Y-82804000D02*
X96520000Y-82804000D01*
D71*
X124015000Y-123049000D02*
X125157000Y-123049000D01*
X131572000Y-124206000D02*
X131739358Y-124038642D01*
X145876000Y-69112000D02*
X147296000Y-69112000D01*
X157226000Y-64757000D02*
X155969000Y-64757000D01*
X149352000Y-62725000D02*
X150635000Y-62725000D01*
X102616000Y-80505000D02*
X103873000Y-80505000D01*
X160020000Y-78486000D02*
X160274000Y-78740000D01*
X135425000Y-110110000D02*
X135425000Y-110825000D01*
D73*
X173880000Y-55228000D02*
X173736000Y-55372000D01*
D72*
X145914000Y-123190000D02*
X153398000Y-123190000D01*
X189230000Y-104394000D02*
X188468000Y-105156000D01*
D74*
X135615000Y-103993000D02*
X135615000Y-104280000D01*
D73*
X173736000Y-55372000D02*
X172466000Y-56642000D01*
D71*
X103402000Y-55650000D02*
X104902000Y-57150000D01*
X103949000Y-77279000D02*
X102870000Y-76200000D01*
D73*
X170180000Y-58928000D02*
X167768000Y-61340000D01*
D71*
X150635000Y-62725000D02*
X150876000Y-62484000D01*
X161036000Y-59957000D02*
X161036000Y-60334000D01*
X129925000Y-66425000D02*
X128778000Y-66425000D01*
D72*
X146987000Y-81105000D02*
X146812000Y-81280000D01*
D71*
X115887000Y-76043000D02*
X116997000Y-76043000D01*
X163830000Y-74018000D02*
X164270000Y-74458000D01*
X164009000Y-69775000D02*
X163830000Y-69596000D01*
X103402000Y-49745000D02*
X103402000Y-55650000D01*
X166500000Y-69775000D02*
X164009000Y-69775000D01*
X145288000Y-79261000D02*
X145288000Y-80518000D01*
D72*
X115303000Y-109715000D02*
X115303000Y-108471000D01*
D73*
X172466000Y-56642000D02*
X171196000Y-57912000D01*
D71*
X157226000Y-69112000D02*
X158104120Y-69112000D01*
X158104120Y-69112000D02*
X158862120Y-69870000D01*
D72*
X132100000Y-97790000D02*
X135128000Y-97790000D01*
D71*
X114491000Y-106489000D02*
X114300000Y-106680000D01*
X141465000Y-75692000D02*
X141465000Y-74435000D01*
X135425000Y-104110000D02*
X135425000Y-103075000D01*
X145347000Y-127605000D02*
X145347000Y-123757000D01*
D72*
X145914000Y-123190000D02*
X145914000Y-123917000D01*
D71*
X161023000Y-59944000D02*
X161036000Y-59957000D01*
X154432000Y-58394000D02*
X156400000Y-58394000D01*
X145347000Y-123757000D02*
X145914000Y-123190000D01*
X103873000Y-80505000D02*
X103886000Y-80518000D01*
X122365000Y-70421000D02*
X122428000Y-70358000D01*
D72*
X97523000Y-81026000D02*
X96520000Y-81026000D01*
D71*
X158750000Y-59944000D02*
X161023000Y-59944000D01*
X167640000Y-96109000D02*
X166116000Y-94585000D01*
X186761000Y-120142000D02*
X186761000Y-121341000D01*
D72*
X112014000Y-109728000D02*
X112014000Y-108458000D01*
D71*
X135425000Y-110825000D02*
X134500000Y-111750000D01*
D73*
X171196000Y-57912000D02*
X170180000Y-58928000D01*
D72*
X118793000Y-125298000D02*
X118793000Y-126311000D01*
D71*
X175300000Y-59937000D02*
X175300000Y-61650000D01*
D72*
X187452000Y-93980000D02*
X189128400Y-95656400D01*
D71*
X103886000Y-80518000D02*
X103886000Y-83901501D01*
D72*
X113030000Y-116332000D02*
X113030000Y-117856000D01*
D71*
X189544000Y-124460000D02*
X189544000Y-125924000D01*
D72*
X118793000Y-126311000D02*
X119228000Y-126746000D01*
X112776000Y-118110000D02*
X113792000Y-118110000D01*
X177912000Y-91440000D02*
X177912000Y-92852000D01*
D71*
X189544000Y-125924000D02*
X189484000Y-125984000D01*
D72*
X139045500Y-99167500D02*
X140208000Y-100330000D01*
D71*
X104774000Y-97536000D02*
X105918000Y-97536000D01*
X104140000Y-77279000D02*
X103949000Y-77279000D01*
D73*
X167640000Y-91186000D02*
X167640000Y-93061000D01*
D71*
X177292000Y-99948000D02*
X177292000Y-101346000D01*
X149847000Y-62725000D02*
X149352000Y-62725000D01*
X119025000Y-81900000D02*
X120400000Y-81900000D01*
X141465000Y-74435000D02*
X141478000Y-74422000D01*
D72*
X178575000Y-87762000D02*
X179832000Y-87762000D01*
X116640000Y-125298000D02*
X116434000Y-125504000D01*
X113030000Y-117856000D02*
X112776000Y-118110000D01*
D71*
X122365000Y-71565000D02*
X122365000Y-70421000D01*
D72*
X118793000Y-125298000D02*
X116640000Y-125298000D01*
X158106000Y-123698000D02*
X163440000Y-123698000D01*
X115303000Y-108471000D02*
X115316000Y-108458000D01*
D71*
X154940000Y-82068000D02*
X154940000Y-83566000D01*
X168144000Y-114714000D02*
X168144000Y-115921000D01*
X116997000Y-76043000D02*
X117094000Y-75946000D01*
X128016000Y-123316000D02*
X128016000Y-124714000D01*
D72*
X128100000Y-97850000D02*
X132040000Y-97850000D01*
X135128000Y-97790000D02*
X139045500Y-97790000D01*
D71*
X103318000Y-84469501D02*
X103318000Y-85207000D01*
D72*
X128097000Y-97853000D02*
X128100000Y-97850000D01*
D71*
X159004000Y-78486000D02*
X160020000Y-78486000D01*
X135425000Y-103075000D02*
X135750000Y-102750000D01*
D72*
X105292000Y-57540000D02*
X104902000Y-57150000D01*
D71*
X154432000Y-58394000D02*
X154432000Y-56896000D01*
D72*
X113792000Y-118110000D02*
X114046000Y-117856000D01*
X153398000Y-123190000D02*
X153906000Y-123698000D01*
D71*
X155969000Y-64757000D02*
X155956000Y-64770000D01*
X130111000Y-64008000D02*
X129095000Y-62992000D01*
D73*
X167640000Y-93061000D02*
X166116000Y-94585000D01*
D71*
X149801000Y-68385000D02*
X149801000Y-66687000D01*
D72*
X124800000Y-97853000D02*
X128097000Y-97853000D01*
D71*
X156400000Y-58394000D02*
X156550000Y-58244000D01*
X115570000Y-106489000D02*
X114491000Y-106489000D01*
X163830000Y-69596000D02*
X163830000Y-74018000D01*
X161036000Y-60334000D02*
X160020000Y-61350000D01*
%TO.N,+24V*%
X115375592Y-122004000D02*
X118517291Y-122004000D01*
D72*
X110755000Y-117639000D02*
X111226000Y-118110000D01*
D73*
X110755000Y-115708000D02*
X110755000Y-116332000D01*
D71*
X118517291Y-122004000D02*
X119399000Y-121122291D01*
D73*
X98132000Y-113118000D02*
X100584000Y-115570000D01*
D71*
X120430709Y-121122291D02*
X124015000Y-117538000D01*
X110755000Y-115382000D02*
X110755000Y-117383408D01*
X119399000Y-121122291D02*
X120430709Y-121122291D01*
X110755000Y-117383408D02*
X115375592Y-122004000D01*
D73*
X100584000Y-115570000D02*
X110617000Y-115570000D01*
D72*
X110755000Y-116332000D02*
X110755000Y-117639000D01*
D73*
X98132000Y-107442000D02*
X98132000Y-113118000D01*
X110617000Y-115570000D02*
X110755000Y-115708000D01*
D71*
X110755000Y-115382000D02*
X110755000Y-116332000D01*
D72*
%TO.N,Net-(U201-BST)*%
X113162000Y-114300000D02*
X113030000Y-114432000D01*
X115316000Y-114300000D02*
X113162000Y-114300000D01*
%TO.N,Net-(U201-SW)*%
X117498000Y-113668000D02*
X122044000Y-113668000D01*
X115316000Y-115850000D02*
X117498000Y-113668000D01*
X114848000Y-115382000D02*
X115316000Y-115850000D01*
X113030000Y-115382000D02*
X114848000Y-115382000D01*
%TO.N,+5V*%
X113922000Y-111265000D02*
X115303000Y-111265000D01*
X110755000Y-114432000D02*
X113922000Y-111265000D01*
D71*
X116434000Y-120904000D02*
X116434000Y-120294000D01*
X125984000Y-116111000D02*
X126373500Y-116111000D01*
X127888000Y-116712000D02*
X127888000Y-117625500D01*
X124844000Y-113668000D02*
X127888000Y-116712000D01*
X120617000Y-116111000D02*
X125984000Y-116111000D01*
X116434000Y-120294000D02*
X120617000Y-116111000D01*
X115303000Y-111265000D02*
X115316000Y-111252000D01*
X122428000Y-111252000D02*
X124844000Y-113668000D01*
D72*
X110755000Y-114432000D02*
X109580000Y-114432000D01*
X109580000Y-114432000D02*
X108712000Y-113564000D01*
X110755000Y-114432000D02*
X110755000Y-112537000D01*
D71*
X126373500Y-116111000D02*
X127888000Y-117625500D01*
X115316000Y-111252000D02*
X122428000Y-111252000D01*
D72*
X110755000Y-112537000D02*
X112014000Y-111278000D01*
D71*
%TO.N,+3V3*%
X145876000Y-76112000D02*
X145876000Y-77123000D01*
X155301000Y-78037000D02*
X157005000Y-78037000D01*
D72*
X116434000Y-123204000D02*
X118249000Y-123204000D01*
D71*
X187960000Y-115062000D02*
X189036000Y-116138000D01*
D72*
X150289500Y-82055000D02*
X150289500Y-82120500D01*
D71*
X145809000Y-77711000D02*
X147574000Y-75946000D01*
X149352000Y-64275000D02*
X149301000Y-64326000D01*
X129794000Y-117602000D02*
X131625358Y-117602000D01*
X142939000Y-45466000D02*
X141224000Y-45466000D01*
D72*
X102018000Y-85207000D02*
X102018000Y-84338912D01*
D73*
X110134000Y-123204000D02*
X110134000Y-127508000D01*
D71*
X142939000Y-51054000D02*
X141478000Y-51054000D01*
D72*
X99073000Y-81026000D02*
X99073000Y-82791000D01*
X118249000Y-123204000D02*
X118793000Y-123748000D01*
D71*
X157226000Y-66954000D02*
X157734000Y-67462000D01*
X157226000Y-66307000D02*
X157226000Y-66954000D01*
X189036000Y-116138000D02*
X189036000Y-118242000D01*
X118793000Y-123748000D02*
X119584000Y-123748000D01*
D72*
X99073000Y-82791000D02*
X99060000Y-82804000D01*
D71*
X144997880Y-69612000D02*
X144272000Y-68886120D01*
D72*
X189230000Y-101587000D02*
X187581000Y-101587000D01*
X177025000Y-87762000D02*
X175768000Y-87762000D01*
D71*
X157988000Y-43688000D02*
X158242000Y-43434000D01*
X144272000Y-68886120D02*
X144272000Y-68326000D01*
D72*
X99060000Y-82804000D02*
X100076000Y-81788000D01*
D71*
X118793000Y-123748000D02*
X118872000Y-123827000D01*
X145288000Y-77711000D02*
X145809000Y-77711000D01*
X149352000Y-64275000D02*
X150101000Y-64275000D01*
D72*
X189128400Y-99568000D02*
X189128400Y-101485400D01*
D71*
X156846000Y-66687000D02*
X157226000Y-66307000D01*
D72*
X102018000Y-84338912D02*
X100483088Y-82804000D01*
D71*
X150101000Y-64275000D02*
X150622000Y-63754000D01*
X158972000Y-68612000D02*
X159004000Y-68580000D01*
X131625358Y-117602000D02*
X131676358Y-117551000D01*
X145876000Y-69612000D02*
X144997880Y-69612000D01*
D72*
X147066000Y-83312000D02*
X146558000Y-83820000D01*
D71*
X119584000Y-123748000D02*
X121666000Y-121666000D01*
D72*
X187581000Y-101587000D02*
X187160000Y-101166000D01*
X100483088Y-82804000D02*
X99060000Y-82804000D01*
D73*
X110134000Y-123204000D02*
X116434000Y-123204000D01*
D71*
X157226000Y-68612000D02*
X158972000Y-68612000D01*
D72*
X149098000Y-83312000D02*
X147066000Y-83312000D01*
D71*
X155301000Y-66687000D02*
X156846000Y-66687000D01*
D73*
X107558000Y-123204000D02*
X107544000Y-123190000D01*
D71*
X149301000Y-64326000D02*
X149301000Y-66687000D01*
D72*
X150289500Y-82120500D02*
X149098000Y-83312000D01*
D71*
X145876000Y-77123000D02*
X145288000Y-77711000D01*
X157454000Y-80492000D02*
X158496000Y-81534000D01*
X157454000Y-78486000D02*
X157454000Y-80492000D01*
D73*
X110134000Y-127508000D02*
X110084000Y-127558000D01*
D72*
X177262000Y-87999000D02*
X177025000Y-87762000D01*
D73*
X110134000Y-123204000D02*
X107558000Y-123204000D01*
D72*
X189128400Y-101485400D02*
X189230000Y-101587000D01*
D71*
X157988000Y-44704000D02*
X157988000Y-43688000D01*
X157005000Y-78037000D02*
X157454000Y-78486000D01*
D72*
X177262000Y-89540000D02*
X177262000Y-87999000D01*
D71*
%TO.N,Net-(U301-PH0)*%
X154502880Y-64607000D02*
X154725880Y-64607000D01*
X158750000Y-58244000D02*
X160873000Y-58244000D01*
X153301000Y-65808880D02*
X154502880Y-64607000D01*
X161036000Y-57404000D02*
X160528000Y-56896000D01*
X161036000Y-58407000D02*
X161036000Y-57404000D01*
X160873000Y-58244000D02*
X161036000Y-58407000D01*
X153301000Y-66687000D02*
X153301000Y-65808880D01*
%TO.N,Net-(U301-VCAP_1)*%
X143095000Y-75612000D02*
X145876000Y-75612000D01*
X143015000Y-75692000D02*
X143095000Y-75612000D01*
%TO.N,Net-(U301-NRST)*%
X166500000Y-68225000D02*
X170304000Y-72029000D01*
X175300000Y-76500000D02*
X175300000Y-69400000D01*
X152301000Y-66687000D02*
X152301000Y-68481000D01*
X166500000Y-68225000D02*
X160629000Y-68225000D01*
X170304000Y-72029000D02*
X170304000Y-76500000D01*
X152301000Y-68481000D02*
X152654000Y-68834000D01*
X160629000Y-68225000D02*
X160528000Y-68326000D01*
D73*
%TO.N,V_MTRCTRL*%
X222504000Y-73746000D02*
X217250000Y-79000000D01*
X212732000Y-44704000D02*
X211137000Y-44704000D01*
X218694000Y-46736000D02*
X222504000Y-50546000D01*
D72*
X210566000Y-85684000D02*
X217250000Y-79000000D01*
X210566000Y-87567000D02*
X210566000Y-85684000D01*
D73*
X218694000Y-46736000D02*
X214764000Y-46736000D01*
X222504000Y-50546000D02*
X222504000Y-73746000D01*
X214764000Y-46736000D02*
X212732000Y-44704000D01*
D71*
%TO.N,HSGND*%
X219964000Y-58166000D02*
X218694000Y-56896000D01*
D73*
X207310161Y-54910161D02*
X209296000Y-56896000D01*
D71*
X199898000Y-97028000D02*
X199898000Y-95758000D01*
D73*
X218694000Y-56896000D02*
X218694000Y-60452000D01*
D72*
X198629000Y-60959000D02*
X198628000Y-60960000D01*
D73*
X209296000Y-56896000D02*
X218694000Y-56896000D01*
D71*
X217678000Y-63246000D02*
X216789000Y-62357000D01*
D72*
X208584800Y-101662000D02*
X204532000Y-101662000D01*
D73*
X204216000Y-123012000D02*
X204012000Y-122808000D01*
D71*
X202705000Y-97015000D02*
X203708000Y-96012000D01*
X204012000Y-122808000D02*
X197992000Y-122808000D01*
D73*
X204216000Y-127254000D02*
X204216000Y-123012000D01*
D72*
X203060000Y-103010000D02*
X204470000Y-101600000D01*
D71*
X202641200Y-97015000D02*
X202705000Y-97015000D01*
D72*
X201678000Y-78689000D02*
X202389000Y-77978000D01*
X204532000Y-101662000D02*
X204470000Y-101600000D01*
X198629000Y-59182000D02*
X198629000Y-60959000D01*
X201678000Y-83312000D02*
X201678000Y-78689000D01*
D73*
X216789000Y-62357000D02*
X215646000Y-63500000D01*
D71*
X217678000Y-67056000D02*
X217678000Y-63246000D01*
D73*
X218694000Y-60452000D02*
X216789000Y-62357000D01*
D71*
X202628200Y-97028000D02*
X202641200Y-97015000D01*
X219964000Y-69342000D02*
X217678000Y-67056000D01*
D72*
X201371200Y-103010000D02*
X203060000Y-103010000D01*
D71*
X199898000Y-97028000D02*
X202628200Y-97028000D01*
D72*
X202389000Y-77978000D02*
X204470000Y-77978000D01*
D71*
X197992000Y-122808000D02*
X197866000Y-122682000D01*
%TO.N,Net-(U702-VIN)*%
X200165000Y-98565000D02*
X199898000Y-98298000D01*
D72*
X210312000Y-99186000D02*
X209410800Y-99186000D01*
D71*
X202641200Y-98565000D02*
X200165000Y-98565000D01*
D72*
X204088200Y-100012000D02*
X202641200Y-98565000D01*
X208584800Y-100012000D02*
X204088200Y-100012000D01*
X209410800Y-99186000D02*
X208584800Y-100012000D01*
%TO.N,HS+5V*%
X199439000Y-77978000D02*
X199439000Y-82093000D01*
X203962000Y-73455000D02*
X199439000Y-77978000D01*
X199898000Y-99986800D02*
X201371200Y-101460000D01*
X210707000Y-65533000D02*
X214516000Y-69342000D01*
X206247000Y-65533000D02*
X203962000Y-67818000D01*
X208280000Y-65533000D02*
X206247000Y-65533000D01*
X199784000Y-101460000D02*
X199644000Y-101600000D01*
X201371200Y-101460000D02*
X199784000Y-101460000D01*
X200658000Y-83312000D02*
X200658000Y-92708000D01*
X199439000Y-82093000D02*
X200658000Y-83312000D01*
X203962000Y-67818000D02*
X203962000Y-73455000D01*
X200658000Y-92708000D02*
X200660000Y-92710000D01*
X208280000Y-65533000D02*
X210707000Y-65533000D01*
X199898000Y-99568000D02*
X199898000Y-99986800D01*
%TO.N,Net-(U701-FB)*%
X209105000Y-60452000D02*
X210820000Y-62167000D01*
X209105000Y-60452000D02*
X206635000Y-57982000D01*
X198698000Y-57982000D02*
X196469000Y-55753000D01*
X210820000Y-62167000D02*
X212535000Y-62167000D01*
X206635000Y-57982000D02*
X198698000Y-57982000D01*
X196469000Y-55753000D02*
X196469000Y-53962000D01*
D71*
%TO.N,Net-(U703-+)*%
X177062001Y-94792001D02*
X177266000Y-94996000D01*
X183579000Y-98298000D02*
X177292000Y-98298000D01*
X177262000Y-91440000D02*
X177062001Y-91639999D01*
X177266000Y-94996000D02*
X177266000Y-98272000D01*
X177229000Y-98107000D02*
X177038000Y-98298000D01*
X177062001Y-91639999D02*
X177062001Y-94792001D01*
X177266000Y-98272000D02*
X177292000Y-98298000D01*
%TO.N,Net-(U703--)*%
X178562000Y-91440000D02*
X180581000Y-91440000D01*
X180581000Y-91440000D02*
X180706000Y-91315000D01*
X183553000Y-96494000D02*
X183579000Y-96520000D01*
X183579000Y-96520000D02*
X180340000Y-96520000D01*
X178562000Y-91440000D02*
X178562000Y-94742000D01*
X180340000Y-96520000D02*
X178816000Y-94996000D01*
X178562000Y-94742000D02*
X178816000Y-94996000D01*
%TO.N,BMS_OUT1*%
X106568000Y-78699000D02*
X106568000Y-85207000D01*
X148301000Y-65224000D02*
X148301000Y-66687000D01*
X144589000Y-51054000D02*
X148076321Y-54541321D01*
X148076321Y-54541321D02*
X148076321Y-61716321D01*
X108174000Y-78456000D02*
X108204000Y-78486000D01*
X108174000Y-76043000D02*
X108174000Y-77093000D01*
X148390339Y-68249150D02*
X148301000Y-68159811D01*
X108174000Y-76043000D02*
X108174000Y-78456000D01*
X148301000Y-68159811D02*
X148301000Y-66687000D01*
X149030000Y-53587642D02*
X149030000Y-50764000D01*
X108174000Y-77093000D02*
X106568000Y-78699000D01*
X148076321Y-54541321D02*
X149030000Y-53587642D01*
%TO.N,BMS_OUT2*%
X147320000Y-66206000D02*
X147801000Y-66687000D01*
X157988000Y-46354000D02*
X154320000Y-46354000D01*
X147320000Y-63462592D02*
X147320000Y-66206000D01*
X150876000Y-47618000D02*
X150876000Y-59906592D01*
X153230000Y-45264000D02*
X150876000Y-47618000D01*
X150876000Y-59906592D02*
X147320000Y-63462592D01*
X154320000Y-46354000D02*
X153230000Y-45264000D01*
%TO.N,BMS_OUT3*%
X144589000Y-49593000D02*
X146304000Y-51308000D01*
X145876000Y-68612000D02*
X145876000Y-68152000D01*
X144589000Y-45466000D02*
X144589000Y-49593000D01*
X148828000Y-45466000D02*
X149030000Y-45264000D01*
X144589000Y-45466000D02*
X148828000Y-45466000D01*
X146304000Y-53848000D02*
X146304000Y-65786000D01*
X145876000Y-68152000D02*
X145542000Y-67818000D01*
%TO.N,Net-(U301-BOOT0)*%
X161164000Y-70612000D02*
X157226000Y-70612000D01*
X162180000Y-69596000D02*
X161164000Y-70612000D01*
%TO.N,Net-(U301-PH1)*%
X154432000Y-60842000D02*
X153924000Y-61350000D01*
X154432000Y-59944000D02*
X154344000Y-60032000D01*
X152801000Y-66687000D02*
X152801000Y-65118240D01*
X154432000Y-59944000D02*
X154432000Y-60842000D01*
X152801000Y-65118240D02*
X153209620Y-64709620D01*
X154432000Y-59944000D02*
X156550000Y-59944000D01*
%TO.N,Net-(OC401-Pad2)*%
X104702000Y-72958000D02*
X104702000Y-75067000D01*
X104702000Y-75067000D02*
X104140000Y-75629000D01*
%TO.N,Net-(OC402-Pad2)*%
X112014000Y-73820000D02*
X114237000Y-76043000D01*
X112014000Y-72704000D02*
X112014000Y-73820000D01*
%TO.N,Net-(OC403-Pad2)*%
X122108000Y-72958000D02*
X122365000Y-73215000D01*
X119888000Y-72958000D02*
X122108000Y-72958000D01*
%TO.N,SAFETY_LOOP_ST*%
X186761000Y-119192000D02*
X178615000Y-119192000D01*
X124777000Y-66425000D02*
X127128000Y-66425000D01*
X145796000Y-80999950D02*
X145796000Y-82042000D01*
X172720000Y-113297000D02*
X172720000Y-103944456D01*
X146812000Y-78486000D02*
X146113000Y-79185000D01*
X168231544Y-99456000D02*
X162813642Y-99456000D01*
X159066000Y-95708358D02*
X159066000Y-93474950D01*
X146812000Y-77647880D02*
X146812000Y-78486000D01*
X178615000Y-119192000D02*
X172720000Y-113297000D01*
X146113000Y-80682950D02*
X145796000Y-80999950D01*
X155702000Y-86106000D02*
X152301000Y-82705000D01*
X152908000Y-75184000D02*
X149275880Y-75184000D01*
X159066000Y-93474950D02*
X155702000Y-90110950D01*
X152301000Y-82705000D02*
X152301000Y-78037000D01*
X172720000Y-103944456D02*
X168231544Y-99456000D01*
X152301000Y-76807000D02*
X152400000Y-76708000D01*
X155702000Y-90110950D02*
X155702000Y-86106000D01*
X152301000Y-78037000D02*
X152301000Y-76807000D01*
X146113000Y-79185000D02*
X146113000Y-80682950D01*
X127128000Y-73786000D02*
X127128000Y-66425000D01*
X162813642Y-99456000D02*
X159066000Y-95708358D01*
X149275880Y-75184000D02*
X146812000Y-77647880D01*
D73*
%TO.N,SAFETY_LOOP_OUT*%
X160074862Y-113030000D02*
X143764000Y-113030000D01*
D71*
X119822000Y-66482000D02*
X119888000Y-66548000D01*
D73*
X121666000Y-62484000D02*
X123540000Y-64358000D01*
X154994138Y-99060000D02*
X161036000Y-105101862D01*
D71*
X139000000Y-91668500D02*
X139000000Y-87568000D01*
D72*
X159766000Y-98125000D02*
X161052000Y-99411000D01*
D73*
X161036000Y-112068862D02*
X160428431Y-112676431D01*
X161036000Y-105101862D02*
X161036000Y-112068862D01*
X121032000Y-62484000D02*
X119822000Y-63694000D01*
X154783000Y-99060000D02*
X155718000Y-98125000D01*
D71*
X123127000Y-66425000D02*
X120011000Y-66425000D01*
D73*
X121666000Y-62484000D02*
X121032000Y-62484000D01*
X156056000Y-117048862D02*
X156056000Y-124992000D01*
X153670000Y-99060000D02*
X154783000Y-99060000D01*
X157112000Y-126048000D02*
X169349000Y-126048000D01*
D71*
X120011000Y-66425000D02*
X119888000Y-66548000D01*
D73*
X123540000Y-71724000D02*
X135382000Y-83566000D01*
X153670000Y-99060000D02*
X154994138Y-99060000D01*
X169349000Y-126048000D02*
X171888000Y-123509000D01*
D72*
X155718000Y-98125000D02*
X159766000Y-98125000D01*
D73*
X119380000Y-47498000D02*
X120650000Y-48768000D01*
X160428431Y-112676431D02*
X160074862Y-113030000D01*
X160428431Y-112676431D02*
X156056000Y-117048862D01*
X123540000Y-64358000D02*
X123540000Y-71724000D01*
X119380000Y-46790000D02*
X119380000Y-47498000D01*
D71*
X139000000Y-87568000D02*
X139192000Y-87376000D01*
D73*
X156056000Y-124992000D02*
X157112000Y-126048000D01*
D71*
X119822000Y-63694000D02*
X119822000Y-66482000D01*
%TO.N,Net-(OC602-Pad2)*%
X171704000Y-98141000D02*
X172369000Y-98806000D01*
X171704000Y-96109000D02*
X171704000Y-98141000D01*
%TO.N,Net-(OC603-Pad2)*%
X140809000Y-124717000D02*
X143697000Y-127605000D01*
X140809000Y-124714000D02*
X140809000Y-124717000D01*
%TO.N,Net-(OC604-Pad2)*%
X168144000Y-113064000D02*
X168461000Y-113064000D01*
X168461000Y-113064000D02*
X169220000Y-112305000D01*
X169220000Y-112305000D02*
X170938000Y-112305000D01*
%TO.N,Net-(OC605-Pad2)*%
X108310000Y-48142000D02*
X106655000Y-48142000D01*
X106655000Y-48142000D02*
X106147000Y-48650000D01*
%TO.N,Net-(Q606-G)*%
X166118000Y-56602000D02*
X166118000Y-62434000D01*
X166118000Y-62434000D02*
X163196000Y-62434000D01*
X169320000Y-53400000D02*
X166118000Y-56602000D01*
%TO.N,PUMP_EN*%
X156347880Y-68112000D02*
X154940000Y-69519880D01*
X154940000Y-75865120D02*
X151210880Y-75865120D01*
X161546000Y-62434000D02*
X161546000Y-64670120D01*
X161546000Y-64670120D02*
X158104120Y-68112000D01*
X158104120Y-68112000D02*
X156347880Y-68112000D01*
X154940000Y-69519880D02*
X154940000Y-75865120D01*
X150301000Y-76775000D02*
X150301000Y-78037000D01*
X151210880Y-75865120D02*
X150301000Y-76775000D01*
%TO.N,Net-(R702-Pad2)*%
X210566000Y-89217000D02*
X210172800Y-89217000D01*
X210172800Y-89217000D02*
X208584800Y-90805000D01*
D72*
%TO.N,Net-(R703-Pad2)*%
X210250000Y-92455000D02*
X210503000Y-92202000D01*
X208584800Y-92455000D02*
X210250000Y-92455000D01*
%TO.N,Net-(R704-Pad2)*%
X209918800Y-93852000D02*
X208584800Y-95186000D01*
X210503000Y-93852000D02*
X209918800Y-93852000D01*
%TO.N,Net-(R705-Pad2)*%
X209612000Y-96836000D02*
X210312000Y-97536000D01*
X208584800Y-96836000D02*
X209612000Y-96836000D01*
D71*
%TO.N,Net-(OC701-Pad2)*%
X191456000Y-122682000D02*
X189672000Y-122682000D01*
X189672000Y-122682000D02*
X189544000Y-122810000D01*
%TO.N,VDIFFP*%
X185229000Y-98298000D02*
X189128400Y-98298000D01*
%TO.N,VDIFFN*%
X187452000Y-96520000D02*
X187960000Y-97028000D01*
X187960000Y-97028000D02*
X189128400Y-97028000D01*
X185229000Y-96520000D02*
X187452000Y-96520000D01*
%TO.N,VSENSE_OUT*%
X148801000Y-67565120D02*
X149040339Y-67804459D01*
X150426761Y-69930000D02*
X152828000Y-69930000D01*
X174498000Y-80772000D02*
X180706000Y-86980000D01*
X152828000Y-69930000D02*
X154686000Y-68072000D01*
X178562000Y-89540000D02*
X180581000Y-89540000D01*
X149040339Y-67804459D02*
X149040339Y-68543578D01*
X149040339Y-68543578D02*
X150426761Y-69930000D01*
X148801000Y-66687000D02*
X148801000Y-67565120D01*
X180581000Y-89540000D02*
X180706000Y-89665000D01*
X174498000Y-75184000D02*
X174498000Y-80772000D01*
X180706000Y-86980000D02*
X180706000Y-89665000D01*
%TO.N,MISO_SPI1*%
X136497837Y-65708000D02*
X137336000Y-65708000D01*
X147566000Y-71112000D02*
X145876000Y-71112000D01*
X137336000Y-65708000D02*
X143002000Y-71374000D01*
X135502000Y-64712163D02*
X136497837Y-65708000D01*
X147828000Y-71374000D02*
X147566000Y-71112000D01*
X143002000Y-71374000D02*
X143510000Y-71374000D01*
X137502000Y-55608000D02*
X135502000Y-57608000D01*
X135502000Y-57608000D02*
X135502000Y-64712163D01*
%TO.N,HVC+_AUX*%
X159633715Y-72612000D02*
X157226000Y-72612000D01*
X137040001Y-106040001D02*
X135425000Y-106040001D01*
X141514000Y-110514000D02*
X137040001Y-106040001D01*
X141514000Y-111500000D02*
X141514000Y-110514000D01*
X146500000Y-111000000D02*
X146500000Y-110793000D01*
X146500000Y-110793000D02*
X148064000Y-109229000D01*
X159781354Y-72464361D02*
X159633715Y-72612000D01*
%TO.N,SWDCLK*%
X157226000Y-76112000D02*
X158900000Y-76112000D01*
X158900000Y-76112000D02*
X159004000Y-76008000D01*
%TO.N,CLK_SPI1*%
X143002000Y-64008000D02*
X143002000Y-68616120D01*
X144997880Y-70612000D02*
X145876000Y-70612000D01*
X143002000Y-68616120D02*
X144997880Y-70612000D01*
%TO.N,MOSI_SPI1*%
X137502000Y-59808000D02*
X137502000Y-61212163D01*
X144997880Y-71612000D02*
X145876000Y-71612000D01*
X142494000Y-66204163D02*
X142494000Y-69108120D01*
X137502000Y-61212163D02*
X142494000Y-66204163D01*
X142494000Y-69108120D02*
X144997880Y-71612000D01*
%TO.N,HVC+_EN*%
X156972000Y-86867000D02*
X157069000Y-86964000D01*
X152857870Y-63246000D02*
X159766000Y-63246000D01*
X151301000Y-64802870D02*
X152857870Y-63246000D01*
X156972000Y-84582000D02*
X156972000Y-86867000D01*
X151301000Y-66687000D02*
X151301000Y-64802870D01*
%TO.N,Net-(OC601-Pad2)*%
X154529000Y-86964000D02*
X153608000Y-86964000D01*
X153608000Y-86964000D02*
X150368000Y-90204000D01*
%TO.N,PRECHRG_AUX*%
X152400000Y-72390000D02*
X154178000Y-74168000D01*
X119292000Y-57540000D02*
X130850130Y-57540000D01*
X129057500Y-60452000D02*
X129057500Y-59442500D01*
X130850130Y-57540000D02*
X130905065Y-57594935D01*
X155702000Y-72136000D02*
X156226000Y-71612000D01*
X134144000Y-64875950D02*
X141230050Y-71962000D01*
X156226000Y-71612000D02*
X157226000Y-71612000D01*
X134144000Y-60833870D02*
X134144000Y-64875950D01*
X148336000Y-72136000D02*
X148590000Y-72390000D01*
X130905065Y-57594935D02*
X134144000Y-60833870D01*
X129057500Y-59442500D02*
X130905065Y-57594935D01*
X148590000Y-72390000D02*
X152400000Y-72390000D01*
%TO.N,SWO*%
X157226000Y-73112000D02*
X159726000Y-73112000D01*
X159726000Y-73112000D02*
X162560000Y-75946000D01*
%TO.N,NSS_SPI1*%
X148020000Y-69377950D02*
X147285950Y-70112000D01*
X143002000Y-59808000D02*
X145002000Y-61808000D01*
X145002000Y-61808000D02*
X145002000Y-65780050D01*
X147285950Y-70112000D02*
X145876000Y-70112000D01*
X145002000Y-65780050D02*
X148020000Y-68798050D01*
X148020000Y-68798050D02*
X148020000Y-69377950D01*
%TO.N,CHRG-_EN*%
X165840278Y-64628000D02*
X173478000Y-72265722D01*
X160721642Y-62000000D02*
X161112642Y-61609000D01*
X162296000Y-61925642D02*
X162296000Y-64628000D01*
X161112642Y-61609000D02*
X161979358Y-61609000D01*
X150301000Y-65199000D02*
X153500000Y-62000000D01*
X161979358Y-61609000D02*
X162296000Y-61925642D01*
X153500000Y-62000000D02*
X160721642Y-62000000D01*
X173478000Y-72265722D02*
X173478000Y-112305000D01*
X150301000Y-66687000D02*
X150301000Y-65199000D01*
X162296000Y-64628000D02*
X165840278Y-64628000D01*
%TO.N,TEMP_A*%
X150801000Y-78037000D02*
X150801000Y-79643500D01*
X150801000Y-79643500D02*
X150289500Y-80155000D01*
%TO.N,HVC-_EN*%
X170954000Y-70345592D02*
X165886408Y-65278000D01*
X160274000Y-64516000D02*
X159715000Y-63957000D01*
X159715000Y-63957000D02*
X153043000Y-63957000D01*
X151801000Y-65199000D02*
X151801000Y-66687000D01*
X172369000Y-101346000D02*
X170954000Y-99931000D01*
X170954000Y-99931000D02*
X170954000Y-70345592D01*
X165886408Y-65278000D02*
X162052000Y-65278000D01*
X153043000Y-63957000D02*
X151801000Y-65199000D01*
%TO.N,HVC-_AUX*%
X136500000Y-109000000D02*
X135500000Y-108000000D01*
X158774000Y-72112000D02*
X157226000Y-72112000D01*
X137250000Y-109000000D02*
X136500000Y-109000000D01*
X143864000Y-109229000D02*
X143864000Y-108364000D01*
X159512000Y-71374000D02*
X158774000Y-72112000D01*
%TO.N,IMD_IO_H*%
X110553000Y-107442000D02*
X111506000Y-106489000D01*
X103632000Y-107442000D02*
X110553000Y-107442000D01*
D73*
%TO.N,Net-(Q701-D)*%
X216858000Y-113982000D02*
X210312000Y-120528000D01*
X219012000Y-113982000D02*
X216858000Y-113982000D01*
X209984000Y-120200000D02*
X210312000Y-120528000D01*
D71*
%TO.N,CHRG+_EN*%
X142164000Y-112126358D02*
X139816000Y-114474358D01*
X143510000Y-101729000D02*
X143159837Y-101729000D01*
X139816000Y-114474358D02*
X139816000Y-123167000D01*
X143159837Y-101729000D02*
X142164000Y-102724837D01*
X139816000Y-123167000D02*
X138269000Y-124714000D01*
X143510000Y-77724000D02*
X143510000Y-101729000D01*
X142164000Y-102724837D02*
X142164000Y-112126358D01*
X150876000Y-68326000D02*
X150801000Y-68251000D01*
X150801000Y-68251000D02*
X150801000Y-66687000D01*
%TO.N,SWDIO*%
X166220000Y-76708000D02*
X168470000Y-74458000D01*
X154751880Y-76708000D02*
X166220000Y-76708000D01*
X154301000Y-77158880D02*
X154751880Y-76708000D01*
X154301000Y-78037000D02*
X154301000Y-77158880D01*
%TO.N,IGNITION_SW*%
X138144000Y-72612000D02*
X145876000Y-72612000D01*
X136144000Y-70612000D02*
X138144000Y-72612000D01*
%TO.N,CHARGE_SW*%
X137844000Y-73112000D02*
X145876000Y-73112000D01*
X136144000Y-74812000D02*
X137844000Y-73112000D01*
%TO.N,PRECHRG_EN*%
X134874000Y-64688033D02*
X136320967Y-66135000D01*
X142637983Y-72112000D02*
X145876000Y-72112000D01*
X108960000Y-44952000D02*
X118866000Y-44952000D01*
X108310000Y-45602000D02*
X108960000Y-44952000D01*
X136660983Y-66135000D02*
X142637983Y-72112000D01*
X118866000Y-44952000D02*
X134874000Y-60960000D01*
X136320967Y-66135000D02*
X136660983Y-66135000D01*
X134874000Y-60960000D02*
X134874000Y-64688033D01*
%TO.N,Net-(OC701-Pad1)*%
X189036000Y-120142000D02*
X191456000Y-120142000D01*
D73*
%TO.N,HVC+_PWR*%
X153866000Y-97027000D02*
X154768000Y-96125000D01*
X150882000Y-102347000D02*
X152264000Y-103729000D01*
X150882000Y-97027000D02*
X153866000Y-97027000D01*
X150882000Y-97027000D02*
X150882000Y-102347000D01*
D71*
X154529000Y-95886000D02*
X154768000Y-96125000D01*
X154529000Y-93374000D02*
X154529000Y-95886000D01*
D72*
%TO.N,HVC-_PWR*%
X161816000Y-94585000D02*
X159766000Y-94585000D01*
D71*
X163397000Y-98806000D02*
X163052000Y-98461000D01*
D72*
X161816000Y-94585000D02*
X161816000Y-97225000D01*
D71*
X165959000Y-98806000D02*
X163397000Y-98806000D01*
D72*
X161816000Y-97225000D02*
X163052000Y-98461000D01*
%TO.N,CHRG+_PWR*%
X140566000Y-115041000D02*
X142065000Y-115041000D01*
X153214000Y-118890000D02*
X153906000Y-118198000D01*
D71*
X140809000Y-115284000D02*
X140566000Y-115041000D01*
D72*
X142065000Y-115041000D02*
X145914000Y-118890000D01*
D71*
X140809000Y-118304000D02*
X140809000Y-115284000D01*
D72*
X145914000Y-118890000D02*
X153214000Y-118890000D01*
D71*
%TO.N,CHRG-_PWR*%
X170938000Y-118715000D02*
X170938000Y-121509000D01*
D72*
X158106000Y-118198000D02*
X164544000Y-118198000D01*
X167675000Y-118246000D02*
X170938000Y-121509000D01*
X164592000Y-118246000D02*
X167675000Y-118246000D01*
X164544000Y-118198000D02*
X164592000Y-118246000D01*
D73*
%TO.N,PRECHRG_PWR*%
X114720000Y-52412000D02*
X113792000Y-53340000D01*
X114720000Y-48142000D02*
X116978000Y-48142000D01*
D72*
X113302000Y-52850000D02*
X113792000Y-53340000D01*
X104902000Y-52850000D02*
X113302000Y-52850000D01*
D73*
X116978000Y-48142000D02*
X117380000Y-47740000D01*
X114720000Y-48142000D02*
X114720000Y-52412000D01*
D71*
%TO.N,IMD_OK_FINAL*%
X111400000Y-81900000D02*
X113425000Y-81900000D01*
X99568000Y-76200000D02*
X99568000Y-77250000D01*
X101760000Y-72958000D02*
X99568000Y-75150000D01*
X99568000Y-75150000D02*
X99568000Y-76200000D01*
X99568000Y-77250000D02*
X100318000Y-78000000D01*
X100318000Y-78000000D02*
X102100000Y-78000000D01*
X109924620Y-80424620D02*
X111400000Y-81900000D01*
X109724620Y-80424620D02*
X109924620Y-80424620D01*
X102162000Y-72958000D02*
X101760000Y-72958000D01*
%TO.N,Net-(Q401-G)*%
X102240000Y-63980000D02*
X102240000Y-66470000D01*
X102240000Y-66470000D02*
X102162000Y-66548000D01*
D73*
%TO.N,Net-(Q401-S)*%
X110678000Y-61726000D02*
X106394000Y-61726000D01*
X106394000Y-61726000D02*
X104140000Y-63980000D01*
D71*
X104702000Y-66548000D02*
X104702000Y-64542000D01*
X104702000Y-64542000D02*
X104140000Y-63980000D01*
%TO.N,BMS_OK_FINAL*%
X120124620Y-79724620D02*
X124800000Y-84400000D01*
X124800000Y-84400000D02*
X124800000Y-91706000D01*
X109474000Y-76043000D02*
X109474000Y-78740000D01*
X110424620Y-79724620D02*
X120124620Y-79724620D01*
X109474000Y-72704000D02*
X109474000Y-76043000D01*
%TO.N,Net-(Q402-G)*%
X109728000Y-63726000D02*
X109728000Y-66040000D01*
X109728000Y-66040000D02*
X109474000Y-66294000D01*
D73*
%TO.N,Net-(Q402-S)*%
X113660000Y-61694000D02*
X111628000Y-63726000D01*
D71*
X112014000Y-66294000D02*
X112014000Y-64112000D01*
D73*
X118872000Y-61694000D02*
X113660000Y-61694000D01*
D71*
X112014000Y-64112000D02*
X111628000Y-63726000D01*
%TO.N,Net-(Q403-G)*%
X117922000Y-65974000D02*
X117348000Y-66548000D01*
X117922000Y-63694000D02*
X117922000Y-65974000D01*
%TO.N,MCU_OK*%
X143779239Y-77074000D02*
X144200000Y-77494761D01*
X149273262Y-84520000D02*
X151801000Y-81992262D01*
X140500000Y-79000000D02*
X142426000Y-77074000D01*
X144200000Y-82451950D02*
X146268050Y-84520000D01*
X146268050Y-84520000D02*
X149273262Y-84520000D01*
X123190000Y-74422000D02*
X133111000Y-84343000D01*
X133111000Y-84343000D02*
X133300000Y-84343000D01*
X136033130Y-84343000D02*
X140500000Y-79876130D01*
X142426000Y-77074000D02*
X143779239Y-77074000D01*
X144200000Y-77494761D02*
X144200000Y-82451950D01*
X140500000Y-79876130D02*
X140500000Y-79000000D01*
X151801000Y-81992262D02*
X151801000Y-78037000D01*
X133300000Y-84343000D02*
X128100000Y-89543000D01*
X118812000Y-74422000D02*
X123190000Y-74422000D01*
X128100000Y-89543000D02*
X128100000Y-91728500D01*
X117348000Y-72958000D02*
X118812000Y-74422000D01*
X133300000Y-84343000D02*
X136033130Y-84343000D01*
%TO.N,Net-(Q601-G)*%
X157069000Y-93374000D02*
X157069000Y-95724000D01*
X157069000Y-95724000D02*
X156668000Y-96125000D01*
%TO.N,Net-(Q602-G)*%
X165959000Y-101346000D02*
X164037000Y-101346000D01*
X164037000Y-101346000D02*
X163052000Y-100361000D01*
%TO.N,Net-(Q603-G)*%
X138666000Y-115041000D02*
X138666000Y-117907000D01*
X138666000Y-117907000D02*
X138269000Y-118304000D01*
%TO.N,Net-(Q604-G)*%
X173478000Y-120869000D02*
X172838000Y-121509000D01*
X173478000Y-118715000D02*
X173478000Y-120869000D01*
%TO.N,Net-(Q605-G)*%
X114720000Y-45602000D02*
X117142000Y-45602000D01*
X117142000Y-45602000D02*
X117380000Y-45840000D01*
%TO.N,Net-(Q701-G)*%
X204012000Y-118248000D02*
X199760000Y-118248000D01*
X199760000Y-118248000D02*
X197866000Y-120142000D01*
D73*
%TO.N,SAFETY_LOOP_IN*%
X99568000Y-61722000D02*
X102932000Y-61722000D01*
X102932000Y-61722000D02*
X103190000Y-61980000D01*
X105546000Y-103242000D02*
X107442000Y-101346000D01*
X103632000Y-103242000D02*
X105546000Y-103242000D01*
%TO.N,PUMP_N*%
X153230000Y-50764000D02*
X163662000Y-50764000D01*
X163662000Y-50764000D02*
X167326000Y-47100000D01*
X167326000Y-47100000D02*
X171600000Y-47100000D01*
%TO.N,Net-(R716-Pad2)*%
X219012000Y-91662000D02*
X217250000Y-89900000D01*
X219012000Y-103082000D02*
X219012000Y-91662000D01*
D71*
%TO.N,BMS_OK_LATCHED*%
X107218000Y-85207000D02*
X107696000Y-84729000D01*
X107696000Y-84729000D02*
X107696000Y-81534000D01*
X110774000Y-78456000D02*
X110774000Y-76043000D01*
X107696000Y-81534000D02*
X110774000Y-78456000D01*
D74*
%TO.N,SWIM*%
X115864000Y-92074000D02*
X106298000Y-92074000D01*
X106298000Y-92074000D02*
X105918000Y-91694000D01*
X117514000Y-90424000D02*
X115864000Y-92074000D01*
X105918000Y-91694000D02*
X105918000Y-90932000D01*
D71*
%TO.N,IMD_OK*%
X102234000Y-96646000D02*
X103124000Y-97536000D01*
X103968000Y-84480332D02*
X103968000Y-85207000D01*
X100818000Y-89094499D02*
X100818000Y-94479642D01*
X98268000Y-77186000D02*
X98268000Y-76200000D01*
X103968000Y-85207000D02*
X103968000Y-85944499D01*
X103968000Y-85944499D02*
X100818000Y-89094499D01*
X101842358Y-95504000D02*
X102234000Y-95504000D01*
X105156000Y-80868761D02*
X103027239Y-78740000D01*
X105156000Y-80868761D02*
X105156000Y-83292332D01*
X105156000Y-83292332D02*
X103968000Y-84480332D01*
X100818000Y-94479642D02*
X101842358Y-95504000D01*
X103027239Y-78740000D02*
X99822000Y-78740000D01*
X99822000Y-78740000D02*
X98268000Y-77186000D01*
X102234000Y-95504000D02*
X102234000Y-96646000D01*
D74*
%TO.N,LATCH_RST*%
X112014000Y-86224000D02*
X111370000Y-86868000D01*
X111370000Y-86868000D02*
X107188000Y-86868000D01*
X105678514Y-87122000D02*
X105798257Y-87241743D01*
X105410000Y-87122000D02*
X105678514Y-87122000D01*
X104618000Y-85207000D02*
X104618000Y-86330000D01*
X104618000Y-86330000D02*
X105410000Y-87122000D01*
D71*
%TO.N,IMD_OK_LATCHED*%
X101400000Y-76200000D02*
X105918000Y-80718000D01*
X100868000Y-76200000D02*
X101400000Y-76200000D01*
X105918000Y-80718000D02*
X105918000Y-85207000D01*
D74*
%TO.N,DEBUG_1*%
X141514001Y-80485999D02*
X141514001Y-80385238D01*
X144888000Y-73612000D02*
X145876000Y-73612000D01*
X131500000Y-91712500D02*
X131500000Y-90500000D01*
X141000000Y-81000000D02*
X141514001Y-80485999D01*
X131500000Y-90500000D02*
X141000000Y-81000000D01*
X144000000Y-74500000D02*
X144888000Y-73612000D01*
%TO.N,DEBUG_2*%
X135165500Y-90677500D02*
X135165500Y-91608000D01*
X141500000Y-84000000D02*
X141500000Y-81392000D01*
X135165500Y-91186000D02*
X135165500Y-90334500D01*
X145068590Y-74112000D02*
X145876000Y-74112000D01*
X143751471Y-75100000D02*
X144701000Y-75100000D01*
X138500000Y-74000000D02*
X138728000Y-73772000D01*
X144701000Y-75100000D02*
X144801000Y-75000000D01*
X144801000Y-74379590D02*
X145068590Y-74112000D01*
X144801000Y-75000000D02*
X144801000Y-74379590D01*
X135165500Y-90334500D02*
X141500000Y-84000000D01*
X142423471Y-73772000D02*
X143751471Y-75100000D01*
X138728000Y-73772000D02*
X142423471Y-73772000D01*
D72*
%TO.N,Net-(D701-K)*%
X216091000Y-69342000D02*
X218314000Y-69342000D01*
D71*
%TO.N,IMD_OK_IN*%
X98132000Y-103242000D02*
X98132000Y-97639000D01*
X98132000Y-97639000D02*
X98235000Y-97536000D01*
%TO.N,Net-(U401-VCAP)*%
X102616000Y-85155000D02*
X102668000Y-85207000D01*
X102616000Y-82055000D02*
X102616000Y-85155000D01*
D74*
%TO.N,STM8_NRST*%
X117514000Y-86224000D02*
X115864000Y-87874000D01*
X105268000Y-85862956D02*
X105268000Y-85207000D01*
X107279044Y-87874000D02*
X105268000Y-85862956D01*
X115864000Y-87874000D02*
X107279044Y-87874000D01*
D71*
%TO.N,Net-(R303-Pad2)*%
X111506000Y-104839000D02*
X111506000Y-104268000D01*
X111506000Y-104268000D02*
X112650000Y-103124000D01*
%TO.N,Net-(R407-Pad2)*%
X99885000Y-97536000D02*
X99885000Y-96203000D01*
X99885000Y-96203000D02*
X100584000Y-95504000D01*
%TO.N,Net-(U301-PB7)*%
X155702000Y-71120000D02*
X155710000Y-71112000D01*
X114300000Y-103569000D02*
X115570000Y-104839000D01*
X142494000Y-82804000D02*
X142494000Y-78486000D01*
X155710000Y-71112000D02*
X157226000Y-71112000D01*
X114300000Y-103124000D02*
X114300000Y-103569000D01*
X114300000Y-103124000D02*
X117856000Y-103124000D01*
%TO.N,Net-(U301-VCAP_2)*%
X154801000Y-80379000D02*
X154940000Y-80518000D01*
X154801000Y-78037000D02*
X154801000Y-80379000D01*
%TO.N,Net-(D501-K)*%
X124015000Y-119113000D02*
X124015000Y-121399000D01*
%TO.N,Net-(D502-K)*%
X128016000Y-120575500D02*
X127888000Y-120447500D01*
X128016000Y-121666000D02*
X128016000Y-120575500D01*
X127888000Y-119200500D02*
X127888000Y-120447500D01*
%TO.N,Net-(D503-K)*%
X131676358Y-121412000D02*
X131739358Y-121475000D01*
X131676358Y-119126000D02*
X131676358Y-121412000D01*
%TO.N,Net-(D504-K)*%
X115000000Y-81900000D02*
X117375000Y-81900000D01*
%TO.N,Net-(D505-K)*%
X124780000Y-96183000D02*
X124800000Y-96203000D01*
X124800000Y-93281000D02*
X124800000Y-96203000D01*
%TO.N,Net-(D506-K)*%
X128100000Y-96200000D02*
X128100000Y-93303500D01*
D74*
%TO.N,Net-(D507-K)*%
X139000000Y-96094500D02*
X139045500Y-96140000D01*
X139000000Y-93243500D02*
X139000000Y-96094500D01*
%TO.N,Net-(D508-K)*%
X133693000Y-105715001D02*
X134018000Y-106040001D01*
D71*
X133850000Y-104185000D02*
X133775000Y-104110000D01*
X133850000Y-106040001D02*
X133850000Y-104185000D01*
%TO.N,Net-(D509-K)*%
X133925000Y-109960000D02*
X133775000Y-110110000D01*
X133925000Y-108000000D02*
X133925000Y-109960000D01*
%TO.N,Net-(D510-K)*%
X127482500Y-60452000D02*
X127482500Y-62954500D01*
X127482500Y-62954500D02*
X127445000Y-62992000D01*
D74*
%TO.N,Net-(D511-K)*%
X131500000Y-96175000D02*
X131500000Y-93287500D01*
%TO.N,Net-(D512-K)*%
X135128000Y-96140000D02*
X135128000Y-93220500D01*
X135128000Y-93220500D02*
X135165500Y-93183000D01*
D72*
%TO.N,Net-(D703-K)*%
X193929000Y-67685000D02*
X194062000Y-67818000D01*
X205612000Y-58609000D02*
X203519000Y-58609000D01*
X207455000Y-60452000D02*
X205612000Y-58609000D01*
X197104000Y-62230000D02*
X200406000Y-62230000D01*
X201930000Y-60706000D02*
X200406000Y-62230000D01*
X195199000Y-58127000D02*
X196254000Y-59182000D01*
X193929000Y-53962000D02*
X193929000Y-67685000D01*
X203519000Y-58609000D02*
X201930000Y-60198000D01*
X191516000Y-54851000D02*
X193040000Y-54851000D01*
X196254000Y-59182000D02*
X196254000Y-61380000D01*
X196254000Y-61380000D02*
X197104000Y-62230000D01*
X193929000Y-53962000D02*
X195199000Y-53962000D01*
X193040000Y-54851000D02*
X193929000Y-53962000D01*
X201930000Y-60198000D02*
X201930000Y-60706000D01*
X195199000Y-53962000D02*
X195199000Y-58127000D01*
%TO.N,Net-(D702-K)*%
X208280000Y-63158000D02*
X211876000Y-63158000D01*
X211876000Y-63158000D02*
X212535000Y-63817000D01*
X203480000Y-60198000D02*
X205320000Y-60198000D01*
X205320000Y-60198000D02*
X208280000Y-63158000D01*
%TO.N,Net-(U701-VDD)*%
X197879000Y-54102000D02*
X197739000Y-53962000D01*
X199390000Y-54102000D02*
X197879000Y-54102000D01*
X191516000Y-56401000D02*
X191516000Y-57912000D01*
D73*
%TO.N,Net-(U701-DRAIN)*%
X206562000Y-49162000D02*
X207310161Y-49910161D01*
X209487000Y-44704000D02*
X209487000Y-47733322D01*
X209487000Y-47733322D02*
X207310161Y-49910161D01*
X193929000Y-49162000D02*
X198387000Y-44704000D01*
X198387000Y-44704000D02*
X209487000Y-44704000D01*
X197739000Y-49162000D02*
X206562000Y-49162000D01*
%TD*%
M02*
