M48
; DRILL file {KiCad 8.0.0} date 2024-07-09T22:18:33-0700
; FORMAT={-:-/ absolute / inch / decimal}
; #@! TF.CreationDate,2024-07-09T22:18:33-07:00
; #@! TF.GenerationSoftware,Kicad,Pcbnew,8.0.0
; #@! TF.FileFunction,Plated,1,4,PTH
FMAT,2
INCH
; #@! TA.AperFunction,Plated,PTH,ViaDrill
T1C0.0118
; #@! TA.AperFunction,Plated,PTH,ComponentDrill
T2C0.0394
; #@! TA.AperFunction,Plated,PTH,ComponentDrill
T3C0.0512
; #@! TA.AperFunction,Plated,PTH,ComponentDrill
T4C0.0551
; #@! TA.AperFunction,Plated,PTH,ComponentDrill
T5C0.0591
%
G90
G05
T1
X3.8Y-3.19
X3.8Y-3.26
X3.92Y-2.43
X3.94Y-3.22
X4.0197Y-3.0709
X4.05Y-3.0
X4.09Y-3.17
X4.1653Y-3.4347
X4.17Y-3.84
X4.22Y-3.42
X4.23Y-3.99
X4.234Y-4.85
X4.26Y-3.09
X4.28Y-4.36
X4.31Y-3.1
X4.3199Y-3.1663
X4.334Y-5.022
X4.3474Y-3.1388
X4.41Y-4.27
X4.49Y-4.64
X4.5Y-4.2
X4.54Y-4.27
X4.61Y-2.99
X4.64Y-4.06
X4.694Y-4.99
X4.7402Y-3.2244
X4.75Y-1.92
X4.79Y-2.46
X4.79Y-4.79
X4.82Y-2.77
X4.9325Y-4.8495
X5.005Y-2.905
X5.04Y-4.91
X5.11Y-4.63
X5.1152Y-2.6152
X5.1225Y-2.52
X5.18Y-4.89
X5.2953Y-4.3996
X5.33Y-3.29
X5.3445Y-4.0453
X5.4035Y-4.2913
X5.4528Y-2.9134
X5.48Y-3.44
X5.4967Y-4.4504
X5.52Y-3.95
X5.56Y-1.79
X5.5602Y-2.8331
X5.57Y-2.01
X5.57Y-2.93
X5.5709Y-3.2044
X5.5714Y-4.3898
X5.5714Y-3.1648
X5.61Y-3.09
X5.61Y-3.26
X5.65Y-2.81
X5.65Y-3.06
X5.66Y-4.45
X5.6693Y-2.9331
X5.68Y-2.69
X5.72Y-3.17
X5.73Y-2.67
X5.74Y-3.23
X5.76Y-2.02
X5.76Y-2.12
X5.76Y-2.59
X5.7677Y-4.3701
X5.77Y-3.3
X5.78Y-3.2
X5.8Y-2.72
X5.81Y-2.99
X5.82Y-2.81
X5.8298Y-2.4298
X5.8386Y-2.5679
X5.84Y-2.84
X5.8421Y-2.687
X5.8977Y-2.6923
X5.93Y-2.51
X5.94Y-2.46
X5.94Y-2.69
X6.0Y-3.02
X6.01Y-2.71
X6.02Y-2.96
X6.0319Y-2.5476
X6.05Y-3.9
X6.06Y-2.4154
X6.07Y-2.92
X6.08Y-2.24
X6.09Y-2.68
X6.0916Y-2.5436
X6.1Y-3.29
X6.13Y-2.8
X6.13Y-2.84
X6.14Y-2.55
X6.18Y-3.33
X6.21Y-2.656
X6.23Y-1.71
X6.24Y-3.21
X6.26Y-2.7
X6.26Y-2.9924
X6.28Y-2.81
X6.29Y-2.49
X6.29Y-3.7238
X6.2906Y-2.8529
X6.3Y-2.4154
X6.3087Y-2.7508
X6.31Y-2.54
X6.31Y-3.1
X6.32Y-2.24
X6.32Y-2.69
X6.38Y-2.57
X6.4Y-2.99
X6.6Y-3.59
X6.6198Y-4.5638
X6.7Y-2.32
X6.7049Y-3.0118
X6.74Y-2.28
X6.79Y-2.23
X6.84Y-2.18
X6.87Y-2.96
X6.9016Y-2.3597
X6.9016Y-3.0118
X6.92Y-3.4552
X6.98Y-3.99
X7.0Y-3.66
X7.08Y-3.4552
X7.33Y-4.8
X7.3685Y-3.9829
X7.38Y-3.7
X7.4Y-4.53
X7.42Y-4.14
X7.46Y-4.96
X7.54Y-2.28
X7.82Y-2.4
X7.85Y-2.13
X7.86Y-4.0
X7.9Y-3.65
X8.02Y-3.78
X8.04Y-5.01
X8.048Y-4.9559
X8.0488Y-4.9154
X8.05Y-3.07
X8.05Y-4.0
X8.49Y-2.5
T2
X8.1618Y-1.965
X8.1618Y-2.1618
T3
X3.96Y-4.55
X3.96Y-4.75
X3.96Y-4.95
X8.61Y-1.84
X8.61Y-2.04
X8.61Y-2.24
T4
X3.8635Y-4.0646
X3.8635Y-4.23
X4.08Y-4.0646
X4.08Y-4.23
X4.41Y-3.3946
X4.41Y-3.56
X4.48Y-2.1
X4.48Y-2.2654
X4.6265Y-3.3946
X4.6265Y-3.56
X4.6965Y-2.1
X4.6965Y-2.2654
X5.1435Y-2.78
X5.1435Y-2.9454
X5.36Y-2.78
X5.36Y-2.9454
X5.4135Y-2.1893
X5.4135Y-2.3546
X5.4135Y-2.52
X5.63Y-2.1893
X5.63Y-2.3546
X5.63Y-2.52
X5.6639Y-4.0838
X5.6639Y-4.3004
X5.8293Y-4.0838
X5.8293Y-4.3004
X5.8673Y-1.782
X5.8673Y-1.9986
X5.9946Y-4.0838
X5.9946Y-4.3004
X6.0327Y-1.782
X6.0327Y-1.9986
X6.0593Y-4.6535
X6.0593Y-4.87
X6.16Y-4.0838
X6.16Y-4.3004
X6.2246Y-4.6535
X6.2246Y-4.87
X6.4673Y-2.9314
X6.4673Y-3.148
X6.6327Y-2.9314
X6.6327Y-3.148
T5
X8.5531Y-3.1102
X8.5531Y-3.5394
X8.6225Y-4.0583
X8.6225Y-4.4875
M30
