%TF.GenerationSoftware,KiCad,Pcbnew,8.0.0*%
%TF.CreationDate,2024-07-09T22:18:33-07:00*%
%TF.ProjectId,main_relay_board,6d61696e-5f72-4656-9c61-795f626f6172,rev?*%
%TF.SameCoordinates,Original*%
%TF.FileFunction,Copper,L4,Bot*%
%TF.FilePolarity,Positive*%
%FSLAX46Y46*%
G04 Gerber Fmt 4.6, Leading zero omitted, Abs format (unit mm)*
G04 Created by KiCad (PCBNEW 8.0.0) date 2024-07-09 22:18:33*
%MOMM*%
%LPD*%
G01*
G04 APERTURE LIST*
G04 Aperture macros list*
%AMRoundRect*
0 Rectangle with rounded corners*
0 $1 Rounding radius*
0 $2 $3 $4 $5 $6 $7 $8 $9 X,Y pos of 4 corners*
0 Add a 4 corners polygon primitive as box body*
4,1,4,$2,$3,$4,$5,$6,$7,$8,$9,$2,$3,0*
0 Add four circle primitives for the rounded corners*
1,1,$1+$1,$2,$3*
1,1,$1+$1,$4,$5*
1,1,$1+$1,$6,$7*
1,1,$1+$1,$8,$9*
0 Add four rect primitives between the rounded corners*
20,1,$1+$1,$2,$3,$4,$5,0*
20,1,$1+$1,$4,$5,$6,$7,0*
20,1,$1+$1,$6,$7,$8,$9,0*
20,1,$1+$1,$8,$9,$2,$3,0*%
G04 Aperture macros list end*
%TA.AperFunction,ComponentPad*%
%ADD10R,2.000000X2.000000*%
%TD*%
%TA.AperFunction,ComponentPad*%
%ADD11C,2.000000*%
%TD*%
%TA.AperFunction,ComponentPad*%
%ADD12RoundRect,0.250001X1.099999X1.399999X-1.099999X1.399999X-1.099999X-1.399999X1.099999X-1.399999X0*%
%TD*%
%TA.AperFunction,ComponentPad*%
%ADD13O,2.700000X3.300000*%
%TD*%
%TA.AperFunction,ComponentPad*%
%ADD14RoundRect,0.250001X-1.399999X1.099999X-1.399999X-1.099999X1.399999X-1.099999X1.399999X1.099999X0*%
%TD*%
%TA.AperFunction,ComponentPad*%
%ADD15O,3.300000X2.700000*%
%TD*%
%TA.AperFunction,ComponentPad*%
%ADD16RoundRect,0.250001X-1.099999X-1.399999X1.099999X-1.399999X1.099999X1.399999X-1.099999X1.399999X0*%
%TD*%
%TA.AperFunction,ComponentPad*%
%ADD17R,2.600000X2.600000*%
%TD*%
%TA.AperFunction,ComponentPad*%
%ADD18C,2.600000*%
%TD*%
%TA.AperFunction,ComponentPad*%
%ADD19R,4.500000X2.500000*%
%TD*%
%TA.AperFunction,ComponentPad*%
%ADD20O,4.500000X2.500000*%
%TD*%
%TA.AperFunction,ComponentPad*%
%ADD21RoundRect,0.250001X1.399999X-1.099999X1.399999X1.099999X-1.399999X1.099999X-1.399999X-1.099999X0*%
%TD*%
%TA.AperFunction,ViaPad*%
%ADD22C,0.600000*%
%TD*%
%TA.AperFunction,ViaPad*%
%ADD23C,0.700000*%
%TD*%
%TA.AperFunction,Conductor*%
%ADD24C,0.300000*%
%TD*%
%TA.AperFunction,Conductor*%
%ADD25C,1.000000*%
%TD*%
%TA.AperFunction,Conductor*%
%ADD26C,0.500000*%
%TD*%
%TA.AperFunction,Conductor*%
%ADD27C,0.200000*%
%TD*%
G04 APERTURE END LIST*
D10*
%TO.P,C705,1*%
%TO.N,Net-(U701-DRAIN)*%
X207310161Y-49910161D03*
D11*
%TO.P,C705,2*%
%TO.N,HSGND*%
X207310161Y-54910161D03*
%TD*%
D12*
%TO.P,J108,1,Pin_1*%
%TO.N,SWO*%
X168470000Y-79958000D03*
D13*
%TO.P,J108,2,Pin_2*%
%TO.N,SWDCLK*%
X164270000Y-79958000D03*
%TO.P,J108,3,Pin_3*%
%TO.N,SWDIO*%
X168470000Y-74458000D03*
%TO.P,J108,4,Pin_4*%
%TO.N,GND*%
X164270000Y-74458000D03*
%TD*%
D14*
%TO.P,J105,1,Pin_1*%
%TO.N,+3V3*%
X119292000Y-53340000D03*
D15*
%TO.P,J105,2,Pin_2*%
%TO.N,PRECHRG_AUX*%
X119292000Y-57540000D03*
%TO.P,J105,3,Pin_3*%
%TO.N,PRECHRG_PWR*%
X113792000Y-53340000D03*
%TO.P,J105,4,Pin_4*%
%TO.N,GND*%
X113792000Y-57540000D03*
%TD*%
D16*
%TO.P,J106,1,Pin_1*%
%TO.N,CHRG+_PWR*%
X153906000Y-118198000D03*
D13*
%TO.P,J106,2,Pin_2*%
%TO.N,CHRG-_PWR*%
X158106000Y-118198000D03*
%TO.P,J106,3,Pin_3*%
%TO.N,GND*%
X153906000Y-123698000D03*
%TO.P,J106,4,Pin_4*%
X158106000Y-123698000D03*
%TD*%
D12*
%TO.P,J104,1,Pin_1*%
%TO.N,+3V3*%
X156464000Y-109229000D03*
D13*
%TO.P,J104,2,Pin_2*%
X152264000Y-109229000D03*
%TO.P,J104,3,Pin_3*%
%TO.N,HVC+_AUX*%
X148064000Y-109229000D03*
%TO.P,J104,4,Pin_4*%
%TO.N,HVC-_AUX*%
X143864000Y-109229000D03*
%TO.P,J104,5,Pin_5*%
%TO.N,HVC-_PWR*%
X156464000Y-103729000D03*
%TO.P,J104,6,Pin_6*%
%TO.N,HVC+_PWR*%
X152264000Y-103729000D03*
%TO.P,J104,7,Pin_7*%
%TO.N,GND*%
X148064000Y-103729000D03*
%TO.P,J104,8,Pin_8*%
X143864000Y-103729000D03*
%TD*%
D17*
%TO.P,J101,1,Pin_1*%
%TO.N,HSGND*%
X218694000Y-56896000D03*
D18*
%TO.P,J101,2,Pin_2*%
%TO.N,unconnected-(J101-Pin_2-Pad2)*%
X218694000Y-51816000D03*
%TO.P,J101,3,Pin_3*%
%TO.N,V_MTRCTRL*%
X218694000Y-46736000D03*
%TD*%
D16*
%TO.P,J102,1,Pin_1*%
%TO.N,BMS_OUT3*%
X149030000Y-45264000D03*
D13*
%TO.P,J102,2,Pin_2*%
%TO.N,BMS_OUT2*%
X153230000Y-45264000D03*
%TO.P,J102,3,Pin_3*%
%TO.N,BMS_OUT1*%
X149030000Y-50764000D03*
%TO.P,J102,4,Pin_4*%
%TO.N,PUMP_N*%
X153230000Y-50764000D03*
%TD*%
D19*
%TO.P,R717,1*%
%TO.N,Net-(R716-Pad2)*%
X219012000Y-103082000D03*
D20*
%TO.P,R717,2*%
%TO.N,Net-(Q701-D)*%
X219012000Y-113982000D03*
%TD*%
D21*
%TO.P,J110,1,Pin_1*%
%TO.N,+3V3*%
X112014000Y-90424000D03*
D15*
%TO.P,J110,2,Pin_2*%
%TO.N,LATCH_RST*%
X112014000Y-86224000D03*
%TO.P,J110,3,Pin_3*%
%TO.N,SWIM*%
X117514000Y-90424000D03*
%TO.P,J110,4,Pin_4*%
%TO.N,STM8_NRST*%
X117514000Y-86224000D03*
%TD*%
D19*
%TO.P,R716,1*%
%TO.N,V_MTRCTRL*%
X217250000Y-79000000D03*
D20*
%TO.P,R716,2*%
%TO.N,Net-(R716-Pad2)*%
X217250000Y-89900000D03*
%TD*%
D17*
%TO.P,J111,1,Pin_1*%
%TO.N,+24V*%
X100584000Y-115570000D03*
D18*
%TO.P,J111,2,Pin_2*%
%TO.N,unconnected-(J111-Pin_2-Pad2)*%
X100584000Y-120650000D03*
%TO.P,J111,3,Pin_3*%
%TO.N,GND*%
X100584000Y-125730000D03*
%TD*%
D21*
%TO.P,J103,1,Pin_1*%
%TO.N,+3V3*%
X130644000Y-74812000D03*
D15*
%TO.P,J103,2,Pin_2*%
X130644000Y-70612000D03*
%TO.P,J103,3,Pin_3*%
%TO.N,CHARGE_SW*%
X136144000Y-74812000D03*
%TO.P,J103,4,Pin_4*%
%TO.N,IGNITION_SW*%
X136144000Y-70612000D03*
%TD*%
D14*
%TO.P,J107,1,Pin_1*%
%TO.N,+3V3*%
X143002000Y-55608000D03*
D15*
%TO.P,J107,2,Pin_2*%
%TO.N,NSS_SPI1*%
X143002000Y-59808000D03*
%TO.P,J107,3,Pin_3*%
%TO.N,CLK_SPI1*%
X143002000Y-64008000D03*
%TO.P,J107,4,Pin_4*%
%TO.N,MISO_SPI1*%
X137502000Y-55608000D03*
%TO.P,J107,5,Pin_5*%
%TO.N,MOSI_SPI1*%
X137502000Y-59808000D03*
%TO.P,J107,6,Pin_6*%
%TO.N,GND*%
X137502000Y-64008000D03*
%TD*%
D21*
%TO.P,J109,1,Pin_1*%
%TO.N,+24V*%
X98132000Y-107442000D03*
D15*
%TO.P,J109,2,Pin_2*%
%TO.N,IMD_OK_IN*%
X98132000Y-103242000D03*
%TO.P,J109,3,Pin_3*%
%TO.N,IMD_IO_H*%
X103632000Y-107442000D03*
%TO.P,J109,4,Pin_4*%
%TO.N,SAFETY_LOOP_IN*%
X103632000Y-103242000D03*
%TD*%
D22*
%TO.N,GND*%
X131572000Y-124206000D03*
X117094000Y-75946000D03*
X149801000Y-68385000D03*
D23*
X134500000Y-111750000D03*
D22*
X102870000Y-76200000D03*
X160020000Y-61350000D03*
D23*
X154940000Y-83566000D03*
D22*
X122428000Y-70358000D03*
X177292000Y-101346000D03*
D23*
X170180000Y-58928000D03*
D22*
X96520000Y-81026000D03*
X140208000Y-100330000D03*
D23*
X141478000Y-74422000D03*
X189484000Y-125984000D03*
D22*
X114046000Y-117856000D03*
D23*
X145288000Y-80518000D03*
X155956000Y-64770000D03*
X115316000Y-108458000D03*
X172466000Y-56642000D03*
D22*
X105918000Y-97536000D03*
D23*
X160274000Y-78740000D03*
X168144000Y-115921000D03*
X160240000Y-69870000D03*
X112014000Y-108458000D03*
D22*
X96520000Y-82804000D03*
D23*
X108712000Y-110744000D03*
D22*
X177800000Y-92964000D03*
D23*
X187452000Y-93980000D03*
X135750000Y-102750000D03*
X186182000Y-121920000D03*
D22*
X167640000Y-91186000D03*
D23*
X119228000Y-126746000D03*
X146812000Y-81280000D03*
D22*
X130111000Y-64008000D03*
X154432000Y-56896000D03*
D23*
X175300000Y-59937000D03*
D22*
X103886000Y-80518000D03*
X150876000Y-62484000D03*
D23*
X129925000Y-66425000D03*
X114300000Y-106680000D03*
X188468000Y-105156000D03*
X147320000Y-69088000D03*
D22*
X120400000Y-81900000D03*
D23*
X171196000Y-57912000D03*
D22*
X128016000Y-124714000D03*
X179832000Y-87762000D03*
X125285000Y-123177000D03*
D23*
X173736000Y-55372000D03*
D22*
%TO.N,+3V3*%
X158496000Y-81534000D03*
X121666000Y-121666000D03*
D23*
X146558000Y-83820000D03*
X110084000Y-127558000D03*
X187160000Y-101166000D03*
X141224000Y-45466000D03*
X107544000Y-123190000D03*
D22*
X147574000Y-75946000D03*
X150622000Y-63754000D03*
X175768000Y-87762000D03*
X157734000Y-67462000D03*
D23*
X187960000Y-115062000D03*
X159004000Y-68580000D03*
D22*
X100076000Y-81788000D03*
D23*
X144272000Y-68326000D03*
X141478000Y-51054000D03*
X158242000Y-43434000D03*
D22*
X129794000Y-117602000D03*
%TO.N,Net-(U301-PH0)*%
X160528000Y-56896000D03*
X154725880Y-64607000D03*
%TO.N,Net-(U301-NRST)*%
X160528000Y-68326000D03*
X152654000Y-68834000D03*
X170304000Y-76500000D03*
X175300000Y-76500000D03*
%TO.N,HSGND*%
X215646000Y-63500000D03*
D23*
X203708000Y-96012000D03*
D22*
X204470000Y-101600000D03*
D23*
X204420000Y-125880000D03*
D22*
X204470000Y-77978000D03*
D23*
X204216000Y-127254000D03*
D22*
X198628000Y-60960000D03*
D23*
X204440000Y-124850000D03*
%TO.N,HS+5V*%
X200660000Y-92710000D03*
D22*
X199644000Y-101600000D03*
%TO.N,BMS_OUT1*%
X108204000Y-78486000D03*
D23*
X148076321Y-61716321D03*
D22*
X148390339Y-68249150D03*
D23*
X148301000Y-65224000D03*
%TO.N,BMS_OUT3*%
X145542000Y-67818000D03*
X146304000Y-53848000D03*
X146304000Y-65786000D03*
X146304000Y-51308000D03*
D22*
%TO.N,Net-(U301-PH1)*%
X153209620Y-64709620D03*
X153924000Y-61350000D03*
%TO.N,SAFETY_LOOP_ST*%
X152908000Y-75184000D03*
X145796000Y-82042000D03*
X127128000Y-73786000D03*
X152400000Y-76708000D03*
%TO.N,SAFETY_LOOP_OUT*%
X120650000Y-48768000D03*
X153670000Y-99060000D03*
X135382000Y-83566000D03*
X121666000Y-62484000D03*
X139192000Y-87376000D03*
X139616000Y-113041000D03*
X143764000Y-113030000D03*
%TO.N,VSENSE_OUT*%
X174498000Y-75184000D03*
X154686000Y-68072000D03*
D23*
%TO.N,MISO_SPI1*%
X143510000Y-71374000D03*
X147828000Y-71374000D03*
D22*
%TO.N,HVC+_AUX*%
X146500000Y-111000000D03*
X141514000Y-111500000D03*
X159781354Y-72464361D03*
D23*
%TO.N,SWDCLK*%
X159004000Y-76008000D03*
D22*
%TO.N,HVC+_EN*%
X156972000Y-84582000D03*
X159766000Y-63246000D03*
%TO.N,PRECHRG_AUX*%
X141230050Y-71962000D03*
X155702000Y-72136000D03*
X148336000Y-72136000D03*
X154178000Y-74168000D03*
D23*
%TO.N,SWO*%
X162560000Y-75946000D03*
D22*
%TO.N,HVC-_EN*%
X162052000Y-65278000D03*
X160274000Y-64516000D03*
D23*
%TO.N,HVC-_AUX*%
X137250000Y-109000000D03*
D22*
X159512000Y-71374000D03*
%TO.N,CHRG+_EN*%
X150876000Y-68326000D03*
X143510000Y-77724000D03*
D23*
%TO.N,HVC-_PWR*%
X159766000Y-94585000D03*
D22*
%TO.N,IMD_OK_FINAL*%
X109724620Y-80424620D03*
X102100000Y-78000000D03*
%TO.N,BMS_OK_FINAL*%
X109474000Y-78740000D03*
X110424620Y-79724620D03*
D23*
%TO.N,SAFETY_LOOP_IN*%
X107442000Y-101346000D03*
D22*
X99568000Y-61722000D03*
%TO.N,LATCH_RST*%
X105798257Y-87241743D03*
X107188000Y-86868000D03*
%TO.N,DEBUG_1*%
X144000000Y-74500000D03*
X141514001Y-80385238D03*
%TO.N,DEBUG_2*%
X138500000Y-74000000D03*
X141500000Y-81392000D03*
%TO.N,Net-(U301-PB7)*%
X117856000Y-103124000D03*
D23*
X142494000Y-78486000D03*
X155702000Y-71120000D03*
D22*
X142494000Y-82804000D03*
%TO.N,Net-(U701-VDD)*%
X199390000Y-54102000D03*
X191516000Y-57912000D03*
%TD*%
D24*
%TO.N,+3V3*%
X125984000Y-121412000D02*
X129794000Y-117602000D01*
X121666000Y-121666000D02*
X121920000Y-121412000D01*
X121920000Y-121412000D02*
X125984000Y-121412000D01*
%TO.N,Net-(U301-PH0)*%
X154725880Y-62698120D02*
X154725880Y-64607000D01*
X160528000Y-56896000D02*
X154725880Y-62698120D01*
%TO.N,Net-(U301-NRST)*%
X153100000Y-69280000D02*
X159574000Y-69280000D01*
X170304000Y-76500000D02*
X174101239Y-76500000D01*
X174101239Y-76500000D02*
X175300000Y-76500000D01*
X152654000Y-68834000D02*
X153100000Y-69280000D01*
X159574000Y-69280000D02*
X160528000Y-68326000D01*
D25*
%TO.N,HSGND*%
X204470000Y-124880000D02*
X204470000Y-125830000D01*
X204470000Y-95250000D02*
X204470000Y-101600000D01*
D26*
X198628000Y-60960000D02*
X204677839Y-54910161D01*
X204677839Y-54910161D02*
X207310161Y-54910161D01*
D25*
X204470000Y-77978000D02*
X204470000Y-74676000D01*
X204470000Y-85852000D02*
X204470000Y-77978000D01*
X204470000Y-125830000D02*
X204420000Y-125880000D01*
X204420000Y-125880000D02*
X204470000Y-125930000D01*
D24*
X203708000Y-96012000D02*
X204470000Y-95250000D01*
D25*
X204470000Y-74676000D02*
X215646000Y-63500000D01*
X204470000Y-124820000D02*
X204440000Y-124850000D01*
X204470000Y-125930000D02*
X204470000Y-127000000D01*
X204470000Y-90424000D02*
X204470000Y-124820000D01*
X204440000Y-124850000D02*
X204470000Y-124880000D01*
X204470000Y-95250000D02*
X204470000Y-85852000D01*
X204470000Y-127000000D02*
X204216000Y-127254000D01*
D26*
%TO.N,HS+5V*%
X200660000Y-92710000D02*
X200660000Y-100584000D01*
X200660000Y-100584000D02*
X199644000Y-101600000D01*
D24*
%TO.N,BMS_OUT1*%
X141598811Y-70674000D02*
X144718000Y-70674000D01*
X139660811Y-72612000D02*
X141598811Y-70674000D01*
X148301000Y-61941000D02*
X148076321Y-61716321D01*
X147142850Y-68249150D02*
X148390339Y-68249150D01*
X114078000Y-72612000D02*
X139660811Y-72612000D01*
X144718000Y-70674000D02*
X147142850Y-68249150D01*
X108204000Y-78486000D02*
X114078000Y-72612000D01*
X148301000Y-65224000D02*
X148301000Y-61941000D01*
%TO.N,BMS_OUT3*%
X145542000Y-66548000D02*
X146304000Y-65786000D01*
X145542000Y-67818000D02*
X145542000Y-66548000D01*
X146304000Y-51308000D02*
X146304000Y-53848000D01*
%TO.N,Net-(U301-PH1)*%
X153924000Y-61350000D02*
X153924000Y-63995240D01*
X153924000Y-63995240D02*
X153209620Y-64709620D01*
%TO.N,SAFETY_LOOP_ST*%
X134518544Y-82042000D02*
X145796000Y-82042000D01*
X127128000Y-73786000D02*
X127128000Y-74651456D01*
X152400000Y-76708000D02*
X152400000Y-75692000D01*
X152400000Y-75692000D02*
X152908000Y-75184000D01*
X127128000Y-74651456D02*
X134518544Y-82042000D01*
D25*
%TO.N,SAFETY_LOOP_OUT*%
X139627000Y-113030000D02*
X139616000Y-113041000D01*
X139192000Y-87376000D02*
X149593734Y-97777734D01*
X135382000Y-83566000D02*
X139192000Y-87376000D01*
X152387734Y-97777734D02*
X153670000Y-99060000D01*
X121642000Y-62460000D02*
X121666000Y-62484000D01*
X120650000Y-48768000D02*
X121642000Y-49760000D01*
X143764000Y-113030000D02*
X139627000Y-113030000D01*
X121642000Y-49760000D02*
X121642000Y-62460000D01*
X149593734Y-97777734D02*
X152387734Y-97777734D01*
D24*
%TO.N,VSENSE_OUT*%
X174498000Y-75184000D02*
X161910000Y-62596000D01*
X154686000Y-67406761D02*
X154686000Y-68072000D01*
X159496761Y-62596000D02*
X154686000Y-67406761D01*
X161910000Y-62596000D02*
X159496761Y-62596000D01*
%TO.N,MISO_SPI1*%
X143510000Y-71374000D02*
X147828000Y-71374000D01*
%TO.N,HVC+_AUX*%
X146000000Y-111500000D02*
X146500000Y-111000000D01*
X154178000Y-104519163D02*
X154178000Y-100311000D01*
X155937000Y-76308715D02*
X159781354Y-72464361D01*
X149468163Y-109229000D02*
X154178000Y-104519163D01*
X155937000Y-98552000D02*
X155937000Y-76308715D01*
X154178000Y-100311000D02*
X155937000Y-98552000D01*
X141514000Y-111500000D02*
X146000000Y-111500000D01*
X148064000Y-109229000D02*
X149468163Y-109229000D01*
%TO.N,SWDCLK*%
X160320000Y-76008000D02*
X164270000Y-79958000D01*
X159004000Y-76008000D02*
X160320000Y-76008000D01*
%TO.N,HVC+_EN*%
X160939239Y-63246000D02*
X162702000Y-65008761D01*
X162702000Y-65008761D02*
X162702000Y-70462954D01*
X159766000Y-63246000D02*
X160939239Y-63246000D01*
X162702000Y-70462954D02*
X156972000Y-76192954D01*
X156972000Y-76192954D02*
X156972000Y-84582000D01*
%TO.N,PRECHRG_AUX*%
X141342050Y-72074000D02*
X141230050Y-71962000D01*
X148274000Y-72074000D02*
X141342050Y-72074000D01*
X154178000Y-73660000D02*
X155702000Y-72136000D01*
X154178000Y-74168000D02*
X154178000Y-73660000D01*
X148336000Y-72136000D02*
X148274000Y-72074000D01*
%TO.N,SWO*%
X163616001Y-76454000D02*
X167120001Y-79958000D01*
X163068000Y-76454000D02*
X163616001Y-76454000D01*
X162560000Y-75946000D02*
X163068000Y-76454000D01*
X167120001Y-79958000D02*
X168470000Y-79958000D01*
%TO.N,HVC-_EN*%
X161036000Y-65278000D02*
X160274000Y-64516000D01*
X162052000Y-65278000D02*
X161036000Y-65278000D01*
%TO.N,HVC-_AUX*%
X154447000Y-98738156D02*
X154447000Y-99381844D01*
X159512000Y-71374000D02*
X152709578Y-78176422D01*
X143864000Y-109229000D02*
X137479000Y-109229000D01*
X146050000Y-107043000D02*
X143864000Y-109229000D01*
X152709578Y-97000734D02*
X154447000Y-98738156D01*
X152709578Y-78176422D02*
X152709578Y-97000734D01*
X154447000Y-99381844D02*
X152099844Y-101729000D01*
X152099844Y-101729000D02*
X147359837Y-101729000D01*
X137479000Y-109229000D02*
X137250000Y-109000000D01*
X147359837Y-101729000D02*
X146050000Y-103038837D01*
X146050000Y-103038837D02*
X146050000Y-107043000D01*
%TO.N,CHRG+_EN*%
X148605239Y-72786000D02*
X150876000Y-70515239D01*
X148194000Y-72786000D02*
X148605239Y-72786000D01*
X143510000Y-77470000D02*
X148194000Y-72786000D01*
X143510000Y-77724000D02*
X143510000Y-77470000D01*
X150876000Y-70515239D02*
X150876000Y-68326000D01*
D26*
%TO.N,HVC-_PWR*%
X159766000Y-94585000D02*
X159766000Y-94839000D01*
X156464000Y-98141000D02*
X156464000Y-103729000D01*
X159766000Y-94839000D02*
X156464000Y-98141000D01*
D24*
%TO.N,IMD_OK_FINAL*%
X102100000Y-78000000D02*
X102500000Y-78000000D01*
X104924620Y-80424620D02*
X109724620Y-80424620D01*
X102500000Y-78000000D02*
X104924620Y-80424620D01*
%TO.N,BMS_OK_FINAL*%
X109474000Y-78774000D02*
X110424620Y-79724620D01*
X109474000Y-78740000D02*
X109474000Y-78774000D01*
D25*
%TO.N,SAFETY_LOOP_IN*%
X97520000Y-63770000D02*
X99568000Y-61722000D01*
X97520000Y-91424000D02*
X97520000Y-63770000D01*
X107442000Y-101346000D02*
X97520000Y-91424000D01*
D27*
%TO.N,LATCH_RST*%
X105798257Y-87241743D02*
X106814257Y-87241743D01*
X106814257Y-87241743D02*
X107188000Y-86868000D01*
%TO.N,DEBUG_1*%
X141514001Y-78546760D02*
X144000000Y-76060761D01*
X141514001Y-80385238D02*
X141514001Y-78546760D01*
X144000000Y-76060761D02*
X144000000Y-74500000D01*
%TO.N,DEBUG_2*%
X138500000Y-78392000D02*
X138500000Y-74000000D01*
X141500000Y-81392000D02*
X138500000Y-78392000D01*
D24*
%TO.N,Net-(U301-PB7)*%
X130810000Y-87039156D02*
X130810000Y-85598000D01*
X133858000Y-82550000D02*
X142240000Y-82550000D01*
X117856000Y-99993156D02*
X130810000Y-87039156D01*
X117856000Y-103124000D02*
X117856000Y-99993156D01*
X142494000Y-78486000D02*
X148336000Y-78486000D01*
X130810000Y-85598000D02*
X133858000Y-82550000D01*
X148336000Y-78486000D02*
X155702000Y-71120000D01*
X142240000Y-82550000D02*
X142494000Y-82804000D01*
D26*
%TO.N,Net-(U701-VDD)*%
X195580000Y-57912000D02*
X199390000Y-54102000D01*
X191516000Y-57912000D02*
X195580000Y-57912000D01*
%TD*%
M02*
